<?xml version="1.0" standalone="no"?>
<?xml-stylesheet href="light.css" type="text/css"?>
<!DOCTYPE svg PUBLIC "-//W3C//DTD SVG 1.1//EN" "http://www.w3.org/Graphics/SVG/1.1/DTD/svg11.dtd">
<svg xmlns="http://www.w3.org/2000/svg" class="railroad-diagram" width="394" height="62" viewBox="0 0 394 62"><g transform="translate(.5 .5)"><path d="M 20 21 v 20 m 0 -10 h 20.5"></path><g><path d="M40 31h0"></path><path d="M354 31h0"></path><path d="M40 31h20"></path><g><path d="M60 31h0"></path><path d="M334 31h0"></path><g class="terminal"><path d="M60 31h0"></path><path d="M122 31h0"></path><rect x="60" y="20" width="62" height="22" rx="0" ry="0"></rect><text x="91" y="35">DROP</text></g><path d="M122 31h10"></path><path d="M132 31h10"></path><g class="terminal"><path d="M142 31h0"></path><path d="M212 31h0"></path><rect x="142" y="20" width="70" height="22" rx="0" ry="0"></rect><text x="177" y="35">MODEL</text></g><path d="M212 31h10"></path><path d="M222 31h10"></path><g class="non-terminal"><path d="M232 31h0"></path><path d="M334 31h0"></path><rect x="232" y="20" width="102" height="22" rx="8" ry="8"></rect><text x="283" y="35">modelName</text></g></g><path d="M334 31h20"></path></g><path d="M 354 31 h 20 m 0 -10 v 20"></path></g></svg>