<?xml version="1.0" standalone="no"?>
<?xml-stylesheet href="light.css" type="text/css"?>
<!DOCTYPE svg PUBLIC "-//W3C//DTD SVG 1.1//EN" "http://www.w3.org/Graphics/SVG/1.1/DTD/svg11.dtd">
<svg xmlns="http://www.w3.org/2000/svg" class="railroad-diagram" width="764" height="108" viewBox="0 0 764 108"><g transform="translate(.5 .5)"><path d="M 20 21 v 20 m 0 -10 h 20.5"></path><g><path d="M40 31h0"></path><path d="M724 31h0"></path><path d="M40 31h20"></path><g><path d="M60 31h0"></path><path d="M704 31h0"></path><g class="terminal"><path d="M60 31h0"></path><path d="M154 31h0"></path><rect x="60" y="20" width="94" height="22" rx="0" ry="0"></rect><text x="107" y="35">K_CREATE</text></g><path d="M154 31h10"></path><path d="M164 31h10"></path><g class="terminal"><path d="M174 31h0"></path><path d="M292 31h0"></path><rect x="174" y="20" width="118" height="22" rx="0" ry="0"></rect><text x="233" y="35">K_MODELTYPE</text></g><path d="M292 31h10"></path><path d="M302 31h10"></path><g class="non-terminal"><path d="M312 31h0"></path><path d="M446 31h0"></path><rect x="312" y="20" width="134" height="22" rx="8" ry="8"></rect><text x="379" y="35">modeltypeName</text></g><path d="M446 31h10"></path><path d="M456 31h10"></path><g class="terminal"><path d="M466 31h0"></path><path d="M536 31h0"></path><rect x="466" y="20" width="70" height="22" rx="0" ry="0"></rect><text x="501" y="35">K_FOR</text></g><path d="M536 31h10"></path><g><path d="M546 31h0"></path><path d="M704 31h0"></path><path d="M546 31h20"></path><g><path d="M566 31h0"></path><path d="M684 31h0"></path><g class="terminal"><path d="M566 31h0"></path><path d="M684 31h0"></path><rect x="566" y="20" width="118" height="22" rx="0" ry="0"></rect><text x="625" y="35">K_INFERENCE</text></g></g><path d="M684 31h20"></path><path d="M546 31a10 10 0 0 1 10 10v26a10 10 0 0 0 10 10"></path><g><path d="M566 77h4"></path><path d="M680 77h4"></path><g class="terminal"><path d="M570 77h0"></path><path d="M680 77h0"></path><rect x="570" y="66" width="110" height="22" rx="0" ry="0"></rect><text x="625" y="81">K_SYNOPSIS</text></g></g><path d="M684 77a10 10 0 0 0 10 -10v-26a10 10 0 0 1 10 -10"></path></g></g><path d="M704 31h20"></path></g><path d="M 724 31 h 20 m 0 -10 v 20"></path></g></svg>