<?xml version="1.0" standalone="no"?>
<?xml-stylesheet href="light.css" type="text/css"?>
<!DOCTYPE svg PUBLIC "-//W3C//DTD SVG 1.1//EN" "http://www.w3.org/Graphics/SVG/1.1/DTD/svg11.dtd">
<svg xmlns="http://www.w3.org/2000/svg" class="railroad-diagram" width="646" height="132" viewBox="0 0 646 132"><g transform="translate(.5 .5)"><path d="M 20 45 v 20 m 0 -10 h 20.5"></path><g><path d="M40 55h0"></path><path d="M606 55h0"></path><path d="M40 55h20"></path><g><path d="M60 55h0"></path><path d="M586 55h0"></path><g><path d="M60 55h0"></path><path d="M210 55h0"></path><path d="M60 55h20"></path><g><path d="M80 55h0"></path><path d="M190 55h0"></path><g class="terminal"><path d="M80 55h0"></path><path d="M190 55h0"></path><rect x="80" y="44" width="110" height="22" rx="0" ry="0"></rect><text x="135" y="59">K_DESCRIBE</text></g></g><path d="M190 55h20"></path><path d="M60 55a10 10 0 0 1 10 10v26a10 10 0 0 0 10 10"></path><g><path d="M80 101h16"></path><path d="M174 101h16"></path><g class="terminal"><path d="M96 101h0"></path><path d="M174 101h0"></path><rect x="96" y="90" width="78" height="22" rx="0" ry="0"></rect><text x="135" y="105">K_DESC</text></g></g><path d="M190 101a10 10 0 0 0 10 -10v-26a10 10 0 0 1 10 -10"></path></g><g><path d="M210 55h0"></path><path d="M474 55h0"></path><path d="M210 55a10 10 0 0 0 10 -10v-15a10 10 0 0 1 10 -10"></path><g><path d="M230 20h224"></path></g><path d="M454 20a10 10 0 0 1 10 10v15a10 10 0 0 0 10 10"></path><path d="M210 55h20"></path><g><path d="M230 55h0"></path><path d="M454 55h0"></path><path d="M230 55h20"></path><g><path d="M250 55h0"></path><path d="M434 55h0"></path><g class="non-terminal"><path d="M250 55h0"></path><path d="M360 55h0"></path><rect x="250" y="44" width="110" height="22" rx="8" ry="8"></rect><text x="305" y="59">schemaName</text></g><path d="M360 55h10"></path><path d="M370 55h10"></path><g class="terminal"><path d="M380 55h0"></path><path d="M434 55h0"></path><rect x="380" y="44" width="54" height="22" rx="0" ry="0"></rect><text x="407" y="59">'.'</text></g></g><path d="M434 55h20"></path></g><path d="M454 55h20"></path></g><path d="M474 55h10"></path><g class="non-terminal"><path d="M484 55h0"></path><path d="M586 55h0"></path><rect x="484" y="44" width="102" height="22" rx="8" ry="8"></rect><text x="535" y="59">tableName</text></g></g><path d="M586 55h20"></path></g><path d="M 606 55 h 20 m 0 -10 v 20"></path></g></svg>