<?xml version="1.0" standalone="no"?>
<?xml-stylesheet href="light.css" type="text/css"?>
<!DOCTYPE svg PUBLIC "-//W3C//DTD SVG 1.1//EN" "http://www.w3.org/Graphics/SVG/1.1/DTD/svg11.dtd">
<svg xmlns="http://www.w3.org/2000/svg" class="railroad-diagram" width="772" height="108" viewBox="0 0 772 108"><g transform="translate(.5 .5)"><path d="M 20 21 v 20 m 0 -10 h 20.5"></path><g><path d="M40 31h0"></path><path d="M732 31h0"></path><path d="M40 31h20"></path><g><path d="M60 31h0"></path><path d="M712 31h0"></path><g><path d="M60 31h0"></path><path d="M194 31h0"></path><path d="M60 31h20"></path><g><path d="M80 31h4"></path><path d="M170 31h4"></path><g class="terminal"><path d="M84 31h0"></path><path d="M170 31h0"></path><rect x="84" y="20" width="86" height="22" rx="0" ry="0"></rect><text x="127" y="35">K_LOCAL</text></g></g><path d="M174 31h20"></path><path d="M60 31a10 10 0 0 1 10 10v26a10 10 0 0 0 10 10"></path><g><path d="M80 77h0"></path><path d="M174 77h0"></path><g class="terminal"><path d="M80 77h0"></path><path d="M174 77h0"></path><rect x="80" y="66" width="94" height="22" rx="0" ry="0"></rect><text x="127" y="81">K_REMOTE</text></g></g><path d="M174 77a10 10 0 0 0 10 -10v-26a10 10 0 0 1 10 -10"></path></g><path d="M194 31h10"></path><g class="terminal"><path d="M204 31h0"></path><path d="M290 31h0"></path><rect x="204" y="20" width="86" height="22" rx="0" ry="0"></rect><text x="247" y="35">K_CLASS</text></g><path d="M290 31h10"></path><path d="M300 31h10"></path><g class="non-terminal"><path d="M310 31h0"></path><path d="M484 31h0"></path><rect x="310" y="20" width="174" height="22" rx="8" ry="8"></rect><text x="397" y="35">modeltypeClassName</text></g><path d="M484 31h10"></path><path d="M494 31h10"></path><g class="terminal"><path d="M504 31h0"></path><path d="M566 31h0"></path><rect x="504" y="20" width="62" height="22" rx="0" ry="0"></rect><text x="535" y="35">K_IN</text></g><path d="M566 31h10"></path><path d="M576 31h10"></path><g class="non-terminal"><path d="M586 31h0"></path><path d="M712 31h0"></path><rect x="586" y="20" width="126" height="22" rx="8" ry="8"></rect><text x="649" y="35">modeltypeUri</text></g></g><path d="M712 31h20"></path></g><path d="M 732 31 h 20 m 0 -10 v 20"></path></g></svg>