<?xml version="1.0" standalone="no"?>
<?xml-stylesheet href="light.css" type="text/css"?>
<!DOCTYPE svg PUBLIC "-//W3C//DTD SVG 1.1//EN" "http://www.w3.org/Graphics/SVG/1.1/DTD/svg11.dtd">
<svg xmlns="http://www.w3.org/2000/svg" class="railroad-diagram" width="504" height="86" viewBox="0 0 504 86"><g transform="translate(.5 .5)"><path d="M 20 45 v 20 m 0 -10 h 20.5"></path><g><path d="M40 55h0"></path><path d="M464 55h0"></path><path d="M40 55h20"></path><g><path d="M60 55h0"></path><path d="M444 55h0"></path><g><path d="M60 55h0"></path><path d="M324 55h0"></path><path d="M60 55a10 10 0 0 0 10 -10v-15a10 10 0 0 1 10 -10"></path><g><path d="M80 20h224"></path></g><path d="M304 20a10 10 0 0 1 10 10v15a10 10 0 0 0 10 10"></path><path d="M60 55h20"></path><g><path d="M80 55h0"></path><path d="M304 55h0"></path><path d="M80 55h20"></path><g><path d="M100 55h0"></path><path d="M284 55h0"></path><g class="non-terminal"><path d="M100 55h0"></path><path d="M210 55h0"></path><rect x="100" y="44" width="110" height="22" rx="8" ry="8"></rect><text x="155" y="59">schemaName</text></g><path d="M210 55h10"></path><path d="M220 55h10"></path><g class="terminal"><path d="M230 55h0"></path><path d="M284 55h0"></path><rect x="230" y="44" width="54" height="22" rx="0" ry="0"></rect><text x="257" y="59">'.'</text></g></g><path d="M284 55h20"></path></g><path d="M304 55h20"></path></g><path d="M324 55h10"></path><g class="terminal"><path d="M334 55h0"></path><path d="M444 55h0"></path><rect x="334" y="44" width="110" height="22" rx="0" ry="0"></rect><text x="389" y="59">IDENTIFIER</text></g></g><path d="M444 55h20"></path></g><path d="M 464 55 h 20 m 0 -10 v 20"></path></g></svg>