<?xml version="1.0" standalone="no"?>
<?xml-stylesheet href="light.css" type="text/css"?>
<!DOCTYPE svg PUBLIC "-//W3C//DTD SVG 1.1//EN" "http://www.w3.org/Graphics/SVG/1.1/DTD/svg11.dtd">
<svg xmlns="http://www.w3.org/2000/svg" class="railroad-diagram" width="878" height="86" viewBox="0 0 878 86"><g transform="translate(.5 .5)"><path d="M 20 45 v 20 m 0 -10 h 20.5"></path><g><path d="M40 55h0"></path><path d="M838 55h0"></path><path d="M40 55h20"></path><g><path d="M60 55h0"></path><path d="M818 55h0"></path><g class="terminal"><path d="M60 55h0"></path><path d="M122 55h0"></path><rect x="60" y="44" width="62" height="22" rx="0" ry="0"></rect><text x="91" y="59">K_ON</text></g><path d="M122 55h10"></path><g><path d="M132 55h0"></path><path d="M396 55h0"></path><path d="M132 55a10 10 0 0 0 10 -10v-15a10 10 0 0 1 10 -10"></path><g><path d="M152 20h224"></path></g><path d="M376 20a10 10 0 0 1 10 10v15a10 10 0 0 0 10 10"></path><path d="M132 55h20"></path><g><path d="M152 55h0"></path><path d="M376 55h0"></path><path d="M152 55h20"></path><g><path d="M172 55h0"></path><path d="M356 55h0"></path><g class="non-terminal"><path d="M172 55h0"></path><path d="M282 55h0"></path><rect x="172" y="44" width="110" height="22" rx="8" ry="8"></rect><text x="227" y="59">schemaName</text></g><path d="M282 55h10"></path><path d="M292 55h10"></path><g class="terminal"><path d="M302 55h0"></path><path d="M356 55h0"></path><rect x="302" y="44" width="54" height="22" rx="0" ry="0"></rect><text x="329" y="59">'.'</text></g></g><path d="M356 55h20"></path></g><path d="M376 55h20"></path></g><path d="M396 55h10"></path><g class="non-terminal"><path d="M406 55h0"></path><path d="M508 55h0"></path><rect x="406" y="44" width="102" height="22" rx="8" ry="8"></rect><text x="457" y="59">tableName</text></g><path d="M508 55h10"></path><path d="M518 55h10"></path><g class="terminal"><path d="M528 55h0"></path><path d="M582 55h0"></path><rect x="528" y="44" width="54" height="22" rx="0" ry="0"></rect><text x="555" y="59">'('</text></g><path d="M582 55h10"></path><path d="M592 55h10"></path><g class="non-terminal"><path d="M602 55h0"></path><path d="M744 55h0"></path><rect x="602" y="44" width="142" height="22" rx="8" ry="8"></rect><text x="673" y="59">columnNameList</text></g><path d="M744 55h10"></path><path d="M754 55h10"></path><g class="terminal"><path d="M764 55h0"></path><path d="M818 55h0"></path><rect x="764" y="44" width="54" height="22" rx="0" ry="0"></rect><text x="791" y="59">')'</text></g></g><path d="M818 55h20"></path></g><path d="M 838 55 h 20 m 0 -10 v 20"></path></g></svg>