<?xml version="1.0" standalone="no"?>
<?xml-stylesheet href="light.css" type="text/css"?>
<!DOCTYPE svg PUBLIC "-//W3C//DTD SVG 1.1//EN" "http://www.w3.org/Graphics/SVG/1.1/DTD/svg11.dtd">
<svg xmlns="http://www.w3.org/2000/svg" class="railroad-diagram" width="726" height="62" viewBox="0 0 726 62"><g transform="translate(.5 .5)"><path d="M 20 21 v 20 m 0 -10 h 20.5"></path><g><path d="M40 31h0"></path><path d="M686 31h0"></path><path d="M40 31h20"></path><g><path d="M60 31h0"></path><path d="M666 31h0"></path><g class="terminal"><path d="M60 31h0"></path><path d="M146 31h0"></path><rect x="60" y="20" width="86" height="22" rx="0" ry="0"></rect><text x="103" y="35">K_TRAIN</text></g><path d="M146 31h10"></path><path d="M156 31h10"></path><g class="terminal"><path d="M166 31h0"></path><path d="M252 31h0"></path><rect x="166" y="20" width="86" height="22" rx="0" ry="0"></rect><text x="209" y="35">K_MODEL</text></g><path d="M252 31h10"></path><path d="M262 31h10"></path><g class="non-terminal"><path d="M272 31h0"></path><path d="M374 31h0"></path><rect x="272" y="20" width="102" height="22" rx="8" ry="8"></rect><text x="323" y="35">modelName</text></g><path d="M374 31h10"></path><path d="M384 31h10"></path><g class="terminal"><path d="M394 31h0"></path><path d="M512 31h0"></path><rect x="394" y="20" width="118" height="22" rx="0" ry="0"></rect><text x="453" y="35">K_MODELTYPE</text></g><path d="M512 31h10"></path><path d="M522 31h10"></path><g class="non-terminal"><path d="M532 31h0"></path><path d="M666 31h0"></path><rect x="532" y="20" width="134" height="22" rx="8" ry="8"></rect><text x="599" y="35">modeltypeName</text></g></g><path d="M666 31h20"></path></g></g></svg>
