<?xml version="1.0" standalone="no"?>
<?xml-stylesheet href="light.css" type="text/css"?>
<!DOCTYPE svg PUBLIC "-//W3C//DTD SVG 1.1//EN" "http://www.w3.org/Graphics/SVG/1.1/DTD/svg11.dtd">
<svg xmlns="http://www.w3.org/2000/svg" class="railroad-diagram" width="368" height="62" viewBox="0 0 368 62"><g transform="translate(.5 .5)"><path d="M 20 21 v 20 m 0 -10 h 20.5"></path><g><path d="M40 31h0"></path><path d="M328 31h0"></path><path d="M40 31h20"></path><g><path d="M60 31h0"></path><path d="M308 31h0"></path><g class="terminal"><path d="M60 31h0"></path><path d="M106 31h0"></path><rect x="60" y="20" width="46" height="22" rx="0" ry="0"></rect><text x="83" y="35">AS</text></g><path d="M106 31h10"></path><path d="M116 31h10"></path><g class="non-terminal"><path d="M126 31h0"></path><path d="M308 31h0"></path><rect x="126" y="20" width="182" height="22" rx="8" ry="8"></rect><text x="217" y="35">modeltypeSpecClause</text></g></g><path d="M308 31h20"></path></g><path d="M 328 31 h 20 m 0 -10 v 20"></path></g></svg>