<?xml version="1.0" standalone="no"?>
<?xml-stylesheet href="light.css" type="text/css"?>
<!DOCTYPE svg PUBLIC "-//W3C//DTD SVG 1.1//EN" "http://www.w3.org/Graphics/SVG/1.1/DTD/svg11.dtd">
<svg xmlns="http://www.w3.org/2000/svg" class="railroad-diagram" width="836" height="86" viewBox="0 0 836 86"><g transform="translate(.5 .5)"><path d="M 20 45 v 20 m 0 -10 h 20.5"></path><g><path d="M40 55h0"></path><path d="M796 55h0"></path><path d="M40 55h20"></path><g><path d="M60 55h0"></path><path d="M776 55h0"></path><g><path d="M60 55h0"></path><path d="M284 55h0"></path><path d="M60 55h20"></path><g><path d="M80 55h0"></path><path d="M264 55h0"></path><g class="non-terminal"><path d="M80 55h0"></path><path d="M190 55h0"></path><rect x="80" y="44" width="110" height="22" rx="8" ry="8"></rect><text x="135" y="59">schemaName</text></g><path d="M190 55h10"></path><path d="M200 55h10"></path><g class="terminal"><path d="M210 55h0"></path><path d="M264 55h0"></path><rect x="210" y="44" width="54" height="22" rx="0" ry="0"></rect><text x="237" y="59">'.'</text></g></g><path d="M264 55h20"></path></g><path d="M284 55h10"></path><g class="non-terminal"><path d="M294 55h0"></path><path d="M396 55h0"></path><rect x="294" y="44" width="102" height="22" rx="8" ry="8"></rect><text x="345" y="59">tableName</text></g><path d="M396 55h10"></path><g><path d="M406 55h0"></path><path d="M776 55h0"></path><path d="M406 55a10 10 0 0 0 10 -10v-15a10 10 0 0 1 10 -10"></path><g><path d="M426 20h330"></path></g><path d="M756 20a10 10 0 0 1 10 10v15a10 10 0 0 0 10 10"></path><path d="M406 55h20"></path><g><path d="M426 55h0"></path><path d="M756 55h0"></path><path d="M426 55h20"></path><g><path d="M446 55h0"></path><path d="M736 55h0"></path><g class="terminal"><path d="M446 55h0"></path><path d="M500 55h0"></path><rect x="446" y="44" width="54" height="22" rx="0" ry="0"></rect><text x="473" y="59">'('</text></g><path d="M500 55h10"></path><path d="M510 55h10"></path><g class="non-terminal"><path d="M520 55h0"></path><path d="M662 55h0"></path><rect x="520" y="44" width="142" height="22" rx="8" ry="8"></rect><text x="591" y="59">columnNameList</text></g><path d="M662 55h10"></path><path d="M672 55h10"></path><g class="terminal"><path d="M682 55h0"></path><path d="M736 55h0"></path><rect x="682" y="44" width="54" height="22" rx="0" ry="0"></rect><text x="709" y="59">')'</text></g></g><path d="M736 55h20"></path></g><path d="M756 55h20"></path></g></g><path d="M776 55h20"></path></g><path d="M 796 55 h 20 m 0 -10 v 20"></path></g></svg>