<?xml version="1.0" standalone="no"?>
<?xml-stylesheet href="light.css" type="text/css"?>
<!DOCTYPE svg PUBLIC "-//W3C//DTD SVG 1.1//EN" "http://www.w3.org/Graphics/SVG/1.1/DTD/svg11.dtd">
<svg xmlns="http://www.w3.org/2000/svg" class="railroad-diagram" width="816" height="62" viewBox="0 0 816 62"><g transform="translate(.5 .5)"><path d="M 20 21 v 20 m 0 -10 h 20.5"></path><g><path d="M40 31h0"></path><path d="M776 31h0"></path><path d="M40 31h20"></path><g><path d="M60 31h0"></path><path d="M756 31h0"></path><g class="terminal"><path d="M60 31h0"></path><path d="M154 31h0"></path><rect x="60" y="20" width="94" height="22" rx="0" ry="0"></rect><text x="107" y="35">K_CREATE</text></g><path d="M154 31h10"></path><path d="M164 31h10"></path><g class="terminal"><path d="M174 31h0"></path><path d="M284 31h0"></path><rect x="174" y="20" width="110" height="22" rx="0" ry="0"></rect><text x="229" y="35">K_SYNOPSIS</text></g><path d="M284 31h10"></path><path d="M294 31h10"></path><g class="non-terminal"><path d="M304 31h0"></path><path d="M430 31h0"></path><rect x="304" y="20" width="126" height="22" rx="8" ry="8"></rect><text x="367" y="35">synopsisName</text></g><path d="M430 31h10"></path><path d="M440 31h10"></path><g class="terminal"><path d="M450 31h0"></path><path d="M528 31h0"></path><rect x="450" y="20" width="78" height="22" rx="0" ry="0"></rect><text x="489" y="35">K_FROM</text></g><path d="M528 31h10"></path><path d="M538 31h10"></path><g class="terminal"><path d="M548 31h0"></path><path d="M634 31h0"></path><rect x="548" y="20" width="86" height="22" rx="0" ry="0"></rect><text x="591" y="35">K_MODEL</text></g><path d="M634 31h10"></path><path d="M644 31h10"></path><g class="non-terminal"><path d="M654 31h0"></path><path d="M756 31h0"></path><rect x="654" y="20" width="102" height="22" rx="8" ry="8"></rect><text x="705" y="35">modelName</text></g></g><path d="M756 31h20"></path></g></g></svg>
