<?xml version="1.0" standalone="no"?>
<?xml-stylesheet href="light.css" type="text/css"?>
<!DOCTYPE svg PUBLIC "-//W3C//DTD SVG 1.1//EN" "http://www.w3.org/Graphics/SVG/1.1/DTD/svg11.dtd">
<svg xmlns="http://www.w3.org/2000/svg" class="railroad-diagram" width="426" height="62" viewBox="0 0 426 62"><g transform="translate(.5 .5)"><path d="M 20 21 v 20 m 0 -10 h 20.5"></path><g><path d="M40 31h0"></path><path d="M386 31h0"></path><path d="M40 31h20"></path><g><path d="M60 31h0"></path><path d="M366 31h0"></path><g class="terminal"><path d="M60 31h0"></path><path d="M138 31h0"></path><rect x="60" y="20" width="78" height="22" rx="0" ry="0"></rect><text x="99" y="35">K_DROP</text></g><path d="M138 31h10"></path><path d="M148 31h10"></path><g class="terminal"><path d="M158 31h0"></path><path d="M244 31h0"></path><rect x="158" y="20" width="86" height="22" rx="0" ry="0"></rect><text x="201" y="35">K_MODEL</text></g><path d="M244 31h10"></path><path d="M254 31h10"></path><g class="non-terminal"><path d="M264 31h0"></path><path d="M366 31h0"></path><rect x="264" y="20" width="102" height="22" rx="8" ry="8"></rect><text x="315" y="35">modelName</text></g></g><path d="M366 31h20"></path></g><path d="M 386 31 h 20 m 0 -10 v 20"></path></g></svg>