<?xml version="1.0" standalone="no"?>
<?xml-stylesheet href="light.css" type="text/css"?>
<!DOCTYPE svg PUBLIC "-//W3C//DTD SVG 1.1//EN" "http://www.w3.org/Graphics/SVG/1.1/DTD/svg11.dtd">
<svg xmlns="http://www.w3.org/2000/svg" class="railroad-diagram" width="542" height="108" viewBox="0 0 542 108"><g transform="translate(.5 .5)"><path d="M 20 21 v 20 m 0 -10 h 20.5"></path><g><path d="M40 31h0"></path><path d="M502 31h0"></path><path d="M40 31h20"></path><g><path d="M60 31h0"></path><path d="M482 31h0"></path><g class="non-terminal"><path d="M60 31h0"></path><path d="M170 31h0"></path><rect x="60" y="20" width="110" height="22" rx="8" ry="8"></rect><text x="115" y="35">expression</text></g><path d="M170 31h10"></path><g><path d="M180 31h0"></path><path d="M282 31h0"></path><path d="M180 31h20"></path><g><path d="M200 31h4"></path><path d="M258 31h4"></path><g class="terminal"><path d="M204 31h0"></path><path d="M258 31h0"></path><rect x="204" y="20" width="54" height="22" rx="0" ry="0"></rect><text x="231" y="35">ASC</text></g></g><path d="M262 31h20"></path><path d="M180 31a10 10 0 0 1 10 10v26a10 10 0 0 0 10 10"></path><g><path d="M200 77h0"></path><path d="M262 77h0"></path><g class="terminal"><path d="M200 77h0"></path><path d="M262 77h0"></path><rect x="200" y="66" width="62" height="22" rx="0" ry="0"></rect><text x="231" y="81">DESC</text></g></g><path d="M262 77a10 10 0 0 0 10 -10v-26a10 10 0 0 1 10 -10"></path></g><g><path d="M282 31h0"></path><path d="M482 31h0"></path><path d="M282 31h20"></path><g><path d="M302 31h0"></path><path d="M462 31h0"></path><g class="terminal"><path d="M302 31h0"></path><path d="M372 31h0"></path><rect x="302" y="20" width="70" height="22" rx="0" ry="0"></rect><text x="337" y="35">NULLS</text></g><path d="M372 31h10"></path><path d="M382 31h10"></path><g class="terminal"><path d="M392 31h0"></path><path d="M462 31h0"></path><rect x="392" y="20" width="70" height="22" rx="0" ry="0"></rect><text x="427" y="35">FIRST</text></g></g><path d="M462 31h20"></path><path d="M282 31a10 10 0 0 1 10 10v26a10 10 0 0 0 10 10"></path><g><path d="M302 77h4"></path><path d="M458 77h4"></path><g class="terminal"><path d="M306 77h0"></path><path d="M376 77h0"></path><rect x="306" y="66" width="70" height="22" rx="0" ry="0"></rect><text x="341" y="81">NULLS</text></g><path d="M376 77h10"></path><path d="M386 77h10"></path><g class="terminal"><path d="M396 77h0"></path><path d="M458 77h0"></path><rect x="396" y="66" width="62" height="22" rx="0" ry="0"></rect><text x="427" y="81">LAST</text></g></g><path d="M462 77a10 10 0 0 0 10 -10v-26a10 10 0 0 1 10 -10"></path></g></g><path d="M482 31h20"></path></g><path d="M 502 31 h 20 m 0 -10 v 20"></path></g></svg>