<?xml version="1.0" standalone="no"?>
<?xml-stylesheet href="light.css" type="text/css"?>
<!DOCTYPE svg PUBLIC "-//W3C//DTD SVG 1.1//EN" "http://www.w3.org/Graphics/SVG/1.1/DTD/svg11.dtd">
<svg xmlns="http://www.w3.org/2000/svg" class="railroad-diagram" width="246" height="246" viewBox="0 0 246 246"><g transform="translate(.5 .5)"><path d="M 20 21 v 20 m 0 -10 h 20.5"></path><g><path d="M40 31h0"></path><path d="M206 31h0"></path><path d="M40 31h20"></path><g><path d="M60 31h0"></path><path d="M186 31h0"></path><g class="terminal"><path d="M60 31h0"></path><path d="M186 31h0"></path><rect x="60" y="20" width="126" height="22" rx="0" ry="0"></rect><text x="123" y="35">K_MODELTYPES</text></g></g><path d="M186 31h20"></path><path d="M40 31a10 10 0 0 1 10 10v26a10 10 0 0 0 10 10"></path><g><path d="M60 77h16"></path><path d="M170 77h16"></path><g class="terminal"><path d="M76 77h0"></path><path d="M170 77h0"></path><rect x="76" y="66" width="94" height="22" rx="0" ry="0"></rect><text x="123" y="81">K_MODELS</text></g></g><path d="M186 77a10 10 0 0 0 10 -10v-26a10 10 0 0 1 10 -10"></path><path d="M40 31a10 10 0 0 1 10 10v72a10 10 0 0 0 10 10"></path><g><path d="M60 123h8"></path><path d="M178 123h8"></path><g class="terminal"><path d="M68 123h0"></path><path d="M178 123h0"></path><rect x="68" y="112" width="110" height="22" rx="0" ry="0"></rect><text x="123" y="127">K_SYNOPSES</text></g></g><path d="M186 123a10 10 0 0 0 10 -10v-72a10 10 0 0 1 10 -10"></path><path d="M40 31a10 10 0 0 1 10 10v118a10 10 0 0 0 10 10"></path><g><path d="M60 169h12"></path><path d="M174 169h12"></path><g class="terminal"><path d="M72 169h0"></path><path d="M174 169h0"></path><rect x="72" y="158" width="102" height="22" rx="0" ry="0"></rect><text x="123" y="173">K_SCHEMAS</text></g></g><path d="M186 169a10 10 0 0 0 10 -10v-118a10 10 0 0 1 10 -10"></path><path d="M40 31a10 10 0 0 1 10 10v164a10 10 0 0 0 10 10"></path><g><path d="M60 215h16"></path><path d="M170 215h16"></path><g class="terminal"><path d="M76 215h0"></path><path d="M170 215h0"></path><rect x="76" y="204" width="94" height="22" rx="0" ry="0"></rect><text x="123" y="219">K_TABLES</text></g></g><path d="M186 215a10 10 0 0 0 10 -10v-164a10 10 0 0 1 10 -10"></path></g><path d="M 206 31 h 20 m 0 -10 v 20"></path></g></svg>