<?xml version="1.0" standalone="no"?>
<?xml-stylesheet href="light.css" type="text/css"?>
<!DOCTYPE svg PUBLIC "-//W3C//DTD SVG 1.1//EN" "http://www.w3.org/Graphics/SVG/1.1/DTD/svg11.dtd">
<svg xmlns="http://www.w3.org/2000/svg" class="railroad-diagram" width="848" height="110" viewBox="0 0 848 110"><g transform="translate(.5 .5)"><path d="M 20 45 v 20 m 0 -10 h 20.5"></path><g><path d="M40 55h0"></path><path d="M808 55h0"></path><path d="M40 55h20"></path><g><path d="M60 55h0"></path><path d="M788 55h0"></path><g class="terminal"><path d="M60 55h0"></path><path d="M162 55h0"></path><rect x="60" y="44" width="102" height="22" rx="0" ry="0"></rect><text x="111" y="59">K_OPTIONS</text></g><path d="M162 55h10"></path><path d="M172 55h10"></path><g class="terminal"><path d="M182 55h0"></path><path d="M236 55h0"></path><rect x="182" y="44" width="54" height="22" rx="0" ry="0"></rect><text x="209" y="59">'('</text></g><path d="M236 55h10"></path><path d="M246 55h10"></path><g class="non-terminal"><path d="M256 55h0"></path><path d="M398 55h0"></path><rect x="256" y="44" width="142" height="22" rx="8" ry="8"></rect><text x="327" y="59">optionKeyValue</text></g><path d="M398 55h10"></path><g><path d="M408 55h0"></path><path d="M724 55h0"></path><path d="M408 55a10 10 0 0 0 10 -10v-15a10 10 0 0 1 10 -10"></path><g><path d="M428 20h276"></path></g><path d="M704 20a10 10 0 0 1 10 10v15a10 10 0 0 0 10 10"></path><path d="M408 55h20"></path><g><path d="M428 55h0"></path><path d="M704 55h0"></path><path d="M428 55h10"></path><g><path d="M438 55h0"></path><path d="M694 55h0"></path><path d="M438 55h20"></path><g><path d="M458 55h0"></path><path d="M674 55h0"></path><g class="terminal"><path d="M458 55h0"></path><path d="M512 55h0"></path><rect x="458" y="44" width="54" height="22" rx="0" ry="0"></rect><text x="485" y="59">','</text></g><path d="M512 55h10"></path><path d="M522 55h10"></path><g class="non-terminal"><path d="M532 55h0"></path><path d="M674 55h0"></path><rect x="532" y="44" width="142" height="22" rx="8" ry="8"></rect><text x="603" y="59">optionKeyValue</text></g></g><path d="M674 55h20"></path></g><path d="M694 55h10"></path><path d="M438 55a10 10 0 0 0 -10 10v15a10 10 0 0 0 10 10"></path><g><path d="M438 90h256"></path></g><path d="M694 90a10 10 0 0 0 10 -10v-15a10 10 0 0 0 -10 -10"></path></g><path d="M704 55h20"></path></g><path d="M724 55h10"></path><g class="terminal"><path d="M734 55h0"></path><path d="M788 55h0"></path><rect x="734" y="44" width="54" height="22" rx="0" ry="0"></rect><text x="761" y="59">')'</text></g></g><path d="M788 55h20"></path></g><path d="M 808 55 h 20 m 0 -10 v 20"></path></g></svg>