<?xml version="1.0" standalone="no"?>
<?xml-stylesheet href="light.css" type="text/css"?>
<!DOCTYPE svg PUBLIC "-//W3C//DTD SVG 1.1//EN" "http://www.w3.org/Graphics/SVG/1.1/DTD/svg11.dtd">
<svg xmlns="http://www.w3.org/2000/svg" class="railroad-diagram" width="854" height="154" viewBox="0 0 854 154"><g transform="translate(.5 .5)"><path d="M 20 21 v 20 m 0 -10 h 20.5"></path><g><path d="M40 31h0"></path><path d="M814 31h0"></path><path d="M40 31h20"></path><g><path d="M60 31h0"></path><path d="M794 31h0"></path><g class="terminal"><path d="M60 31h0"></path><path d="M130 31h0"></path><rect x="60" y="20" width="70" height="22" rx="0" ry="0"></rect><text x="95" y="35">ALTER</text></g><path d="M130 31h10"></path><path d="M140 31h10"></path><g class="terminal"><path d="M150 31h0"></path><path d="M244 31h0"></path><rect x="150" y="20" width="94" height="22" rx="0" ry="0"></rect><text x="197" y="35">SYNOPSIS</text></g><path d="M244 31h10"></path><path d="M254 31h10"></path><g class="non-terminal"><path d="M264 31h0"></path><path d="M390 31h0"></path><rect x="264" y="20" width="126" height="22" rx="8" ry="8"></rect><text x="327" y="35">synopsisName</text></g><path d="M390 31h10"></path><g><path d="M400 31h0"></path><path d="M794 31h0"></path><path d="M400 31h20"></path><g><path d="M420 31h0"></path><path d="M774 31h0"></path><g><path d="M420 31h0"></path><path d="M774 31h0"></path><path d="M420 31h20"></path><g><path d="M440 31h0"></path><path d="M754 31h0"></path><g class="terminal"><path d="M440 31h0"></path><path d="M518 31h0"></path><rect x="440" y="20" width="78" height="22" rx="0" ry="0"></rect><text x="479" y="35">RENAME</text></g><path d="M518 31h10"></path><path d="M528 31h10"></path><g class="terminal"><path d="M538 31h0"></path><path d="M584 31h0"></path><rect x="538" y="20" width="46" height="22" rx="0" ry="0"></rect><text x="561" y="35">TO</text></g><path d="M584 31h10"></path><path d="M594 31h10"></path><g class="non-terminal"><path d="M604 31h0"></path><path d="M754 31h0"></path><rect x="604" y="20" width="150" height="22" rx="8" ry="8"></rect><text x="679" y="35">newSynopsisName</text></g></g><path d="M754 31h20"></path></g></g><path d="M774 31h20"></path><path d="M400 31a10 10 0 0 1 10 10v26a10 10 0 0 0 10 10"></path><g><path d="M420 77h114"></path><path d="M660 77h114"></path><g><path d="M534 77h0"></path><path d="M660 77h0"></path><path d="M534 77h20"></path><g><path d="M554 77h4"></path><path d="M636 77h4"></path><g class="terminal"><path d="M558 77h0"></path><path d="M636 77h0"></path><rect x="558" y="66" width="78" height="22" rx="0" ry="0"></rect><text x="597" y="81">ENABLE</text></g></g><path d="M640 77h20"></path><path d="M534 77a10 10 0 0 1 10 10v26a10 10 0 0 0 10 10"></path><g><path d="M554 123h0"></path><path d="M640 123h0"></path><g class="terminal"><path d="M554 123h0"></path><path d="M640 123h0"></path><rect x="554" y="112" width="86" height="22" rx="0" ry="0"></rect><text x="597" y="127">DISABLE</text></g></g><path d="M640 123a10 10 0 0 0 10 -10v-26a10 10 0 0 1 10 -10"></path></g></g><path d="M774 77a10 10 0 0 0 10 -10v-26a10 10 0 0 1 10 -10"></path></g></g><path d="M794 31h20"></path></g><path d="M 814 31 h 20 m 0 -10 v 20"></path></g></svg>