<?xml version="1.0" standalone="no"?>
<?xml-stylesheet href="light.css" type="text/css"?>
<!DOCTYPE svg PUBLIC "-//W3C//DTD SVG 1.1//EN" "http://www.w3.org/Graphics/SVG/1.1/DTD/svg11.dtd">
<svg xmlns="http://www.w3.org/2000/svg" class="railroad-diagram" width="782" height="154" viewBox="0 0 782 154"><g transform="translate(.5 .5)"><path d="M 20 21 v 20 m 0 -10 h 20.5"></path><g><path d="M40 31h0"></path><path d="M742 31h0"></path><path d="M40 31h20"></path><g><path d="M60 31h0"></path><path d="M722 31h0"></path><g class="terminal"><path d="M60 31h0"></path><path d="M130 31h0"></path><rect x="60" y="20" width="70" height="22" rx="0" ry="0"></rect><text x="95" y="35">ALTER</text></g><path d="M130 31h10"></path><path d="M140 31h10"></path><g class="terminal"><path d="M150 31h0"></path><path d="M220 31h0"></path><rect x="150" y="20" width="70" height="22" rx="0" ry="0"></rect><text x="185" y="35">MODEL</text></g><path d="M220 31h10"></path><path d="M230 31h10"></path><g class="non-terminal"><path d="M240 31h0"></path><path d="M342 31h0"></path><rect x="240" y="20" width="102" height="22" rx="8" ry="8"></rect><text x="291" y="35">modelName</text></g><path d="M342 31h10"></path><g><path d="M352 31h0"></path><path d="M722 31h0"></path><path d="M352 31h20"></path><g><path d="M372 31h0"></path><path d="M702 31h0"></path><g><path d="M372 31h0"></path><path d="M702 31h0"></path><path d="M372 31h20"></path><g><path d="M392 31h0"></path><path d="M682 31h0"></path><g class="terminal"><path d="M392 31h0"></path><path d="M470 31h0"></path><rect x="392" y="20" width="78" height="22" rx="0" ry="0"></rect><text x="431" y="35">RENAME</text></g><path d="M470 31h10"></path><path d="M480 31h10"></path><g class="terminal"><path d="M490 31h0"></path><path d="M536 31h0"></path><rect x="490" y="20" width="46" height="22" rx="0" ry="0"></rect><text x="513" y="35">TO</text></g><path d="M536 31h10"></path><path d="M546 31h10"></path><g class="non-terminal"><path d="M556 31h0"></path><path d="M682 31h0"></path><rect x="556" y="20" width="126" height="22" rx="8" ry="8"></rect><text x="619" y="35">newModelName</text></g></g><path d="M682 31h20"></path></g></g><path d="M702 31h20"></path><path d="M352 31a10 10 0 0 1 10 10v26a10 10 0 0 0 10 10"></path><g><path d="M372 77h102"></path><path d="M600 77h102"></path><g><path d="M474 77h0"></path><path d="M600 77h0"></path><path d="M474 77h20"></path><g><path d="M494 77h4"></path><path d="M576 77h4"></path><g class="terminal"><path d="M498 77h0"></path><path d="M576 77h0"></path><rect x="498" y="66" width="78" height="22" rx="0" ry="0"></rect><text x="537" y="81">ENABLE</text></g></g><path d="M580 77h20"></path><path d="M474 77a10 10 0 0 1 10 10v26a10 10 0 0 0 10 10"></path><g><path d="M494 123h0"></path><path d="M580 123h0"></path><g class="terminal"><path d="M494 123h0"></path><path d="M580 123h0"></path><rect x="494" y="112" width="86" height="22" rx="0" ry="0"></rect><text x="537" y="127">DISABLE</text></g></g><path d="M580 123a10 10 0 0 0 10 -10v-26a10 10 0 0 1 10 -10"></path></g></g><path d="M702 77a10 10 0 0 0 10 -10v-26a10 10 0 0 1 10 -10"></path></g></g><path d="M722 31h20"></path></g><path d="M 742 31 h 20 m 0 -10 v 20"></path></g></svg>