<?xml version="1.0" standalone="no"?>
<?xml-stylesheet href="light.css" type="text/css"?>
<!DOCTYPE svg PUBLIC "-//W3C//DTD SVG 1.1//EN" "http://www.w3.org/Graphics/SVG/1.1/DTD/svg11.dtd">
<svg xmlns="http://www.w3.org/2000/svg" class="railroad-diagram" width="466" height="62" viewBox="0 0 466 62"><g transform="translate(.5 .5)"><path d="M 20 21 v 20 m 0 -10 h 20.5"></path><g><path d="M40 31h0"></path><path d="M426 31h0"></path><path d="M40 31h20"></path><g><path d="M60 31h0"></path><path d="M406 31h0"></path><g class="terminal"><path d="M60 31h0"></path><path d="M146 31h0"></path><rect x="60" y="20" width="86" height="22" rx="0" ry="0"></rect><text x="103" y="35">ANALYZE</text></g><path d="M146 31h10"></path><path d="M156 31h10"></path><g class="terminal"><path d="M166 31h0"></path><path d="M260 31h0"></path><rect x="166" y="20" width="94" height="22" rx="0" ry="0"></rect><text x="213" y="35">SYNOPSIS</text></g><path d="M260 31h10"></path><path d="M270 31h10"></path><g class="non-terminal"><path d="M280 31h0"></path><path d="M406 31h0"></path><rect x="280" y="20" width="126" height="22" rx="8" ry="8"></rect><text x="343" y="35">synopsisName</text></g></g><path d="M406 31h20"></path></g><path d="M 426 31 h 20 m 0 -10 v 20"></path></g></svg>