<?xml version="1.0" standalone="no"?>
<?xml-stylesheet href="light.css" type="text/css"?>
<!DOCTYPE svg PUBLIC "-//W3C//DTD SVG 1.1//EN" "http://www.w3.org/Graphics/SVG/1.1/DTD/svg11.dtd">
<svg xmlns="http://www.w3.org/2000/svg" class="railroad-diagram" width="700" height="108" viewBox="0 0 700 108"><g transform="translate(.5 .5)"><path d="M 20 21 v 20 m 0 -10 h 20.5"></path><g><path d="M40 31h0"></path><path d="M660 31h0"></path><path d="M40 31h20"></path><g><path d="M60 31h0"></path><path d="M640 31h0"></path><g class="terminal"><path d="M60 31h0"></path><path d="M138 31h0"></path><rect x="60" y="20" width="78" height="22" rx="0" ry="0"></rect><text x="99" y="35">CREATE</text></g><path d="M138 31h10"></path><path d="M148 31h10"></path><g class="terminal"><path d="M158 31h0"></path><path d="M260 31h0"></path><rect x="158" y="20" width="102" height="22" rx="0" ry="0"></rect><text x="209" y="35">MODELTYPE</text></g><path d="M260 31h10"></path><path d="M270 31h10"></path><g class="non-terminal"><path d="M280 31h0"></path><path d="M414 31h0"></path><rect x="280" y="20" width="134" height="22" rx="8" ry="8"></rect><text x="347" y="35">modeltypeName</text></g><path d="M414 31h10"></path><path d="M424 31h10"></path><g class="terminal"><path d="M434 31h0"></path><path d="M488 31h0"></path><rect x="434" y="20" width="54" height="22" rx="0" ry="0"></rect><text x="461" y="35">FOR</text></g><path d="M488 31h10"></path><g><path d="M498 31h0"></path><path d="M640 31h0"></path><path d="M498 31h20"></path><g><path d="M518 31h0"></path><path d="M620 31h0"></path><g class="terminal"><path d="M518 31h0"></path><path d="M620 31h0"></path><rect x="518" y="20" width="102" height="22" rx="0" ry="0"></rect><text x="569" y="35">INFERENCE</text></g></g><path d="M620 31h20"></path><path d="M498 31a10 10 0 0 1 10 10v26a10 10 0 0 0 10 10"></path><g><path d="M518 77h4"></path><path d="M616 77h4"></path><g class="terminal"><path d="M522 77h0"></path><path d="M616 77h0"></path><rect x="522" y="66" width="94" height="22" rx="0" ry="0"></rect><text x="569" y="81">SYNOPSIS</text></g></g><path d="M620 77a10 10 0 0 0 10 -10v-26a10 10 0 0 1 10 -10"></path></g></g><path d="M640 31h20"></path></g></g></svg>
