<?xml version="1.0" standalone="no"?>
<?xml-stylesheet href="light.css" type="text/css"?>
<!DOCTYPE svg PUBLIC "-//W3C//DTD SVG 1.1//EN" "http://www.w3.org/Graphics/SVG/1.1/DTD/svg11.dtd">
<svg xmlns="http://www.w3.org/2000/svg" class="railroad-diagram" width="1046" height="178" viewBox="0 0 1046 178"><g transform="translate(.5 .5)"><path d="M 20 45 v 20 m 0 -10 h 20.5"></path><g><path d="M40 55h0"></path><path d="M1006 55h0"></path><path d="M40 55h20"></path><g><path d="M60 55h0"></path><path d="M986 55h0"></path><g class="terminal"><path d="M60 55h0"></path><path d="M138 55h0"></path><rect x="60" y="44" width="78" height="22" rx="0" ry="0"></rect><text x="99" y="59">CREATE</text></g><path d="M138 55h10"></path><path d="M148 55h10"></path><g class="terminal"><path d="M158 55h0"></path><path d="M252 55h0"></path><rect x="158" y="44" width="94" height="22" rx="0" ry="0"></rect><text x="205" y="59">SYNOPSIS</text></g><path d="M252 55h10"></path><path d="M262 55h10"></path><g class="non-terminal"><path d="M272 55h0"></path><path d="M398 55h0"></path><rect x="272" y="44" width="126" height="22" rx="8" ry="8"></rect><text x="335" y="59">synopsisName</text></g><path d="M398 55h10"></path><g><path d="M408 55h0"></path><path d="M702 55h0"></path><path d="M408 55a10 10 0 0 0 10 -10v-15a10 10 0 0 1 10 -10"></path><g><path d="M428 20h254"></path></g><path d="M682 20a10 10 0 0 1 10 10v15a10 10 0 0 0 10 10"></path><path d="M408 55h20"></path><g><path d="M428 55h0"></path><path d="M682 55h0"></path><path d="M428 55h20"></path><g><path d="M448 55h0"></path><path d="M662 55h0"></path><g class="terminal"><path d="M448 55h0"></path><path d="M510 55h0"></path><rect x="448" y="44" width="62" height="22" rx="0" ry="0"></rect><text x="479" y="59">K_AS</text></g><path d="M510 55h10"></path><g><path d="M520 55h0"></path><path d="M662 55h0"></path><path d="M520 55h20"></path><g><path d="M540 55h8"></path><path d="M634 55h8"></path><g class="terminal"><path d="M548 55h0"></path><path d="M634 55h0"></path><rect x="548" y="44" width="86" height="22" rx="0" ry="0"></rect><text x="591" y="59">K_TABLE</text></g></g><path d="M642 55h20"></path><path d="M520 55a10 10 0 0 1 10 10v26a10 10 0 0 0 10 10"></path><g><path d="M540 101h12"></path><path d="M630 101h12"></path><g class="terminal"><path d="M552 101h0"></path><path d="M630 101h0"></path><rect x="552" y="90" width="78" height="22" rx="0" ry="0"></rect><text x="591" y="105">K_FILE</text></g></g><path d="M642 101a10 10 0 0 0 10 -10v-26a10 10 0 0 1 10 -10"></path><path d="M520 55a10 10 0 0 1 10 10v72a10 10 0 0 0 10 10"></path><g><path d="M540 147h0"></path><path d="M642 147h0"></path><g class="terminal"><path d="M540 147h0"></path><path d="M642 147h0"></path><rect x="540" y="136" width="102" height="22" rx="0" ry="0"></rect><text x="591" y="151">K_DEFAULT</text></g></g><path d="M642 147a10 10 0 0 0 10 -10v-72a10 10 0 0 1 10 -10"></path></g></g><path d="M662 55h20"></path></g><path d="M682 55h20"></path></g><path d="M702 55h10"></path><g class="terminal"><path d="M712 55h0"></path><path d="M774 55h0"></path><rect x="712" y="44" width="62" height="22" rx="0" ry="0"></rect><text x="743" y="59">FROM</text></g><path d="M774 55h10"></path><path d="M784 55h10"></path><g class="terminal"><path d="M794 55h0"></path><path d="M864 55h0"></path><rect x="794" y="44" width="70" height="22" rx="0" ry="0"></rect><text x="829" y="59">MODEL</text></g><path d="M864 55h10"></path><path d="M874 55h10"></path><g class="non-terminal"><path d="M884 55h0"></path><path d="M986 55h0"></path><rect x="884" y="44" width="102" height="22" rx="8" ry="8"></rect><text x="935" y="59">modelName</text></g></g><path d="M986 55h20"></path></g><path d="M 1006 55 h 20 m 0 -10 v 20"></path></g></svg>