<?xml version="1.0" standalone="no"?>
<?xml-stylesheet href="light.css" type="text/css"?>
<!DOCTYPE svg PUBLIC "-//W3C//DTD SVG 1.1//EN" "http://www.w3.org/Graphics/SVG/1.1/DTD/svg11.dtd">
<svg xmlns="http://www.w3.org/2000/svg" class="railroad-diagram" width="534" height="132" viewBox="0 0 534 132"><g transform="translate(.5 .5)"><path d="M 20 45 v 20 m 0 -10 h 20.5"></path><g><path d="M40 55h0"></path><path d="M494 55h0"></path><path d="M40 55h20"></path><g><path d="M60 55h0"></path><path d="M474 55h0"></path><g class="terminal"><path d="M60 55h0"></path><path d="M130 55h0"></path><rect x="60" y="44" width="70" height="22" rx="0" ry="0"></rect><text x="95" y="59">LIMIT</text></g><path d="M130 55h10"></path><g><path d="M140 55h0"></path><path d="M474 55h0"></path><path d="M140 55h20"></path><g><path d="M160 55h0"></path><path d="M454 55h0"></path><g><path d="M160 55h0"></path><path d="M454 55h0"></path><path d="M160 55h20"></path><g><path d="M180 55h0"></path><path d="M434 55h0"></path><g class="non-terminal"><path d="M180 55h0"></path><path d="M282 55h0"></path><rect x="180" y="44" width="102" height="22" rx="8" ry="8"></rect><text x="231" y="59">limitRows</text></g><path d="M282 55h10"></path><g><path d="M292 55h0"></path><path d="M434 55h0"></path><path d="M292 55a10 10 0 0 0 10 -10v-15a10 10 0 0 1 10 -10"></path><g><path d="M312 20h102"></path></g><path d="M414 20a10 10 0 0 1 10 10v15a10 10 0 0 0 10 10"></path><path d="M292 55h20"></path><g><path d="M312 55h0"></path><path d="M414 55h0"></path><path d="M312 55h20"></path><g><path d="M332 55h0"></path><path d="M394 55h0"></path><g class="terminal"><path d="M332 55h0"></path><path d="M394 55h0"></path><rect x="332" y="44" width="62" height="22" rx="0" ry="0"></rect><text x="363" y="59">ROWS</text></g></g><path d="M394 55h20"></path></g><path d="M414 55h20"></path></g></g><path d="M434 55h20"></path></g></g><path d="M454 55h20"></path><path d="M140 55a10 10 0 0 1 10 10v26a10 10 0 0 0 10 10"></path><g><path d="M160 101h11"></path><path d="M443 101h11"></path><g><path d="M171 101h0"></path><path d="M443 101h0"></path><path d="M171 101h20"></path><g><path d="M191 101h0"></path><path d="M423 101h0"></path><g class="non-terminal"><path d="M191 101h0"></path><path d="M317 101h0"></path><rect x="191" y="90" width="126" height="22" rx="8" ry="8"></rect><text x="254" y="105">limitPercent</text></g><path d="M317 101h10"></path><path d="M327 101h10"></path><g class="terminal"><path d="M337 101h0"></path><path d="M423 101h0"></path><rect x="337" y="90" width="86" height="22" rx="0" ry="0"></rect><text x="380" y="105">PERCENT</text></g></g><path d="M423 101h20"></path></g></g><path d="M454 101a10 10 0 0 0 10 -10v-26a10 10 0 0 1 10 -10"></path></g></g><path d="M474 55h20"></path></g><path d="M 494 55 h 20 m 0 -10 v 20"></path></g></svg>