<?xml version="1.0" standalone="no"?>
<?xml-stylesheet href="light.css" type="text/css"?>
<!DOCTYPE svg PUBLIC "-//W3C//DTD SVG 1.1//EN" "http://www.w3.org/Graphics/SVG/1.1/DTD/svg11.dtd">
<svg xmlns="http://www.w3.org/2000/svg" class="railroad-diagram" width="730" height="178" viewBox="0 0 730 178"><g transform="translate(.5 .5)"><path d="M 20 45 v 20 m 0 -10 h 20.5"></path><g><path d="M40 55h0"></path><path d="M690 55h0"></path><path d="M40 55h20"></path><g><path d="M60 55h0"></path><path d="M670 55h0"></path><g class="terminal"><path d="M60 55h0"></path><path d="M138 55h0"></path><rect x="60" y="44" width="78" height="22" rx="0" ry="0"></rect><text x="99" y="59">CREATE</text></g><path d="M138 55h10"></path><path d="M148 55h10"></path><g class="terminal"><path d="M158 55h0"></path><path d="M252 55h0"></path><rect x="158" y="44" width="94" height="22" rx="0" ry="0"></rect><text x="205" y="59">SYNOPSIS</text></g><path d="M252 55h10"></path><path d="M262 55h10"></path><g class="non-terminal"><path d="M272 55h0"></path><path d="M398 55h0"></path><rect x="272" y="44" width="126" height="22" rx="8" ry="8"></rect><text x="335" y="59">synopsisName</text></g><path d="M398 55h10"></path><g><path d="M408 55h0"></path><path d="M670 55h0"></path><path d="M408 55a10 10 0 0 0 10 -10v-15a10 10 0 0 1 10 -10"></path><g><path d="M428 20h222"></path></g><path d="M650 20a10 10 0 0 1 10 10v15a10 10 0 0 0 10 10"></path><path d="M408 55h20"></path><g><path d="M428 55h0"></path><path d="M650 55h0"></path><path d="M428 55h20"></path><g><path d="M448 55h0"></path><path d="M630 55h0"></path><g class="terminal"><path d="M448 55h0"></path><path d="M494 55h0"></path><rect x="448" y="44" width="46" height="22" rx="0" ry="0"></rect><text x="471" y="59">AS</text></g><path d="M494 55h10"></path><g><path d="M504 55h0"></path><path d="M630 55h0"></path><path d="M504 55h20"></path><g><path d="M524 55h8"></path><path d="M602 55h8"></path><g class="terminal"><path d="M532 55h0"></path><path d="M602 55h0"></path><rect x="532" y="44" width="70" height="22" rx="0" ry="0"></rect><text x="567" y="59">TABLE</text></g></g><path d="M610 55h20"></path><path d="M504 55a10 10 0 0 1 10 10v26a10 10 0 0 0 10 10"></path><g><path d="M524 101h12"></path><path d="M598 101h12"></path><g class="terminal"><path d="M536 101h0"></path><path d="M598 101h0"></path><rect x="536" y="90" width="62" height="22" rx="0" ry="0"></rect><text x="567" y="105">FILE</text></g></g><path d="M610 101a10 10 0 0 0 10 -10v-26a10 10 0 0 1 10 -10"></path><path d="M504 55a10 10 0 0 1 10 10v72a10 10 0 0 0 10 10"></path><g><path d="M524 147h0"></path><path d="M610 147h0"></path><g class="terminal"><path d="M524 147h0"></path><path d="M610 147h0"></path><rect x="524" y="136" width="86" height="22" rx="0" ry="0"></rect><text x="567" y="151">DEFAULT</text></g></g><path d="M610 147a10 10 0 0 0 10 -10v-72a10 10 0 0 1 10 -10"></path></g></g><path d="M630 55h20"></path></g><path d="M650 55h20"></path></g></g><path d="M670 55h20"></path></g><path d="M 690 55 h 20 m 0 -10 v 20"></path></g></svg>