<?xml version="1.0" standalone="no"?>
<?xml-stylesheet href="light.css" type="text/css"?>
<!DOCTYPE svg PUBLIC "-//W3C//DTD SVG 1.1//EN" "http://www.w3.org/Graphics/SVG/1.1/DTD/svg11.dtd">
<svg xmlns="http://www.w3.org/2000/svg" class="railroad-diagram" width="752" height="62" viewBox="0 0 752 62"><g transform="translate(.5 .5)"><path d="M 20 21 v 20 m 0 -10 h 20.5"></path><g><path d="M40 31h0"></path><path d="M712 31h0"></path><path d="M40 31h20"></path><g><path d="M60 31h0"></path><path d="M692 31h0"></path><g class="terminal"><path d="M60 31h0"></path><path d="M138 31h0"></path><rect x="60" y="20" width="78" height="22" rx="0" ry="0"></rect><text x="99" y="35">CREATE</text></g><path d="M138 31h10"></path><path d="M148 31h10"></path><g class="terminal"><path d="M158 31h0"></path><path d="M252 31h0"></path><rect x="158" y="20" width="94" height="22" rx="0" ry="0"></rect><text x="205" y="35">SYNOPSIS</text></g><path d="M252 31h10"></path><path d="M262 31h10"></path><g class="non-terminal"><path d="M272 31h0"></path><path d="M398 31h0"></path><rect x="272" y="20" width="126" height="22" rx="8" ry="8"></rect><text x="335" y="35">synopsisName</text></g><path d="M398 31h10"></path><path d="M408 31h10"></path><g class="terminal"><path d="M418 31h0"></path><path d="M480 31h0"></path><rect x="418" y="20" width="62" height="22" rx="0" ry="0"></rect><text x="449" y="35">FROM</text></g><path d="M480 31h10"></path><path d="M490 31h10"></path><g class="terminal"><path d="M500 31h0"></path><path d="M570 31h0"></path><rect x="500" y="20" width="70" height="22" rx="0" ry="0"></rect><text x="535" y="35">MODEL</text></g><path d="M570 31h10"></path><path d="M580 31h10"></path><g class="non-terminal"><path d="M590 31h0"></path><path d="M692 31h0"></path><rect x="590" y="20" width="102" height="22" rx="8" ry="8"></rect><text x="641" y="35">modelName</text></g></g><path d="M692 31h20"></path></g></g></svg>
