<?xml version="1.0" standalone="no"?>
<?xml-stylesheet href="light.css" type="text/css"?>
<!DOCTYPE svg PUBLIC "-//W3C//DTD SVG 1.1//EN" "http://www.w3.org/Graphics/SVG/1.1/DTD/svg11.dtd">
<svg xmlns="http://www.w3.org/2000/svg" class="railroad-diagram" width="828" height="132" viewBox="0 0 828 132"><g transform="translate(.5 .5)"><path d="M 20 45 v 20 m 0 -10 h 20.5"></path><g><path d="M40 55h0"></path><path d="M788 55h0"></path><path d="M40 55h20"></path><g><path d="M60 55h0"></path><path d="M768 55h0"></path><g class="terminal"><path d="M60 55h0"></path><path d="M122 55h0"></path><rect x="60" y="44" width="62" height="22" rx="0" ry="0"></rect><text x="91" y="59">FROM</text></g><path d="M122 55h10"></path><path d="M132 55h10"></path><g class="terminal"><path d="M142 55h0"></path><path d="M212 55h0"></path><rect x="142" y="44" width="70" height="22" rx="0" ry="0"></rect><text x="177" y="59">MODEL</text></g><path d="M212 55h10"></path><path d="M222 55h10"></path><g class="non-terminal"><path d="M232 55h0"></path><path d="M334 55h0"></path><rect x="232" y="44" width="102" height="22" rx="8" ry="8"></rect><text x="283" y="59">modelName</text></g><path d="M334 55h10"></path><path d="M344 55h10"></path><g class="terminal"><path d="M354 55h0"></path><path d="M424 55h0"></path><rect x="354" y="44" width="70" height="22" rx="0" ry="0"></rect><text x="389" y="59">LIMIT</text></g><path d="M424 55h10"></path><g><path d="M434 55h0"></path><path d="M768 55h0"></path><path d="M434 55h20"></path><g><path d="M454 55h0"></path><path d="M748 55h0"></path><g><path d="M454 55h0"></path><path d="M748 55h0"></path><path d="M454 55h20"></path><g><path d="M474 55h0"></path><path d="M728 55h0"></path><g class="non-terminal"><path d="M474 55h0"></path><path d="M576 55h0"></path><rect x="474" y="44" width="102" height="22" rx="8" ry="8"></rect><text x="525" y="59">limitRows</text></g><path d="M576 55h10"></path><g><path d="M586 55h0"></path><path d="M728 55h0"></path><path d="M586 55a10 10 0 0 0 10 -10v-15a10 10 0 0 1 10 -10"></path><g><path d="M606 20h102"></path></g><path d="M708 20a10 10 0 0 1 10 10v15a10 10 0 0 0 10 10"></path><path d="M586 55h20"></path><g><path d="M606 55h0"></path><path d="M708 55h0"></path><path d="M606 55h20"></path><g><path d="M626 55h0"></path><path d="M688 55h0"></path><g class="terminal"><path d="M626 55h0"></path><path d="M688 55h0"></path><rect x="626" y="44" width="62" height="22" rx="0" ry="0"></rect><text x="657" y="59">ROWS</text></g></g><path d="M688 55h20"></path></g><path d="M708 55h20"></path></g></g><path d="M728 55h20"></path></g></g><path d="M748 55h20"></path><path d="M434 55a10 10 0 0 1 10 10v26a10 10 0 0 0 10 10"></path><g><path d="M454 101h11"></path><path d="M737 101h11"></path><g><path d="M465 101h0"></path><path d="M737 101h0"></path><path d="M465 101h20"></path><g><path d="M485 101h0"></path><path d="M717 101h0"></path><g class="non-terminal"><path d="M485 101h0"></path><path d="M611 101h0"></path><rect x="485" y="90" width="126" height="22" rx="8" ry="8"></rect><text x="548" y="105">limitPercent</text></g><path d="M611 101h10"></path><path d="M621 101h10"></path><g class="terminal"><path d="M631 101h0"></path><path d="M717 101h0"></path><rect x="631" y="90" width="86" height="22" rx="0" ry="0"></rect><text x="674" y="105">PERCENT</text></g></g><path d="M717 101h20"></path></g></g><path d="M748 101a10 10 0 0 0 10 -10v-26a10 10 0 0 1 10 -10"></path></g></g><path d="M768 55h20"></path></g><path d="M 788 55 h 20 m 0 -10 v 20"></path></g></svg>