<?xml version="1.0" standalone="no"?>
<?xml-stylesheet href="light.css" type="text/css"?>
<!DOCTYPE svg PUBLIC "-//W3C//DTD SVG 1.1//EN" "http://www.w3.org/Graphics/SVG/1.1/DTD/svg11.dtd">
<svg xmlns="http://www.w3.org/2000/svg" class="railroad-diagram" width="630" height="132" viewBox="0 0 630 132"><g transform="translate(.5 .5)"><path d="M 20 45 v 20 m 0 -10 h 20.5"></path><g><path d="M40 55h0"></path><path d="M590 55h0"></path><path d="M40 55h20"></path><g><path d="M60 55h0"></path><path d="M570 55h0"></path><g><path d="M60 55h0"></path><path d="M194 55h0"></path><path d="M60 55h20"></path><g><path d="M80 55h0"></path><path d="M174 55h0"></path><g class="terminal"><path d="M80 55h0"></path><path d="M174 55h0"></path><rect x="80" y="44" width="94" height="22" rx="0" ry="0"></rect><text x="127" y="59">DESCRIBE</text></g></g><path d="M174 55h20"></path><path d="M60 55a10 10 0 0 1 10 10v26a10 10 0 0 0 10 10"></path><g><path d="M80 101h16"></path><path d="M158 101h16"></path><g class="terminal"><path d="M96 101h0"></path><path d="M158 101h0"></path><rect x="96" y="90" width="62" height="22" rx="0" ry="0"></rect><text x="127" y="105">DESC</text></g></g><path d="M174 101a10 10 0 0 0 10 -10v-26a10 10 0 0 1 10 -10"></path></g><g><path d="M194 55h0"></path><path d="M458 55h0"></path><path d="M194 55a10 10 0 0 0 10 -10v-15a10 10 0 0 1 10 -10"></path><g><path d="M214 20h224"></path></g><path d="M438 20a10 10 0 0 1 10 10v15a10 10 0 0 0 10 10"></path><path d="M194 55h20"></path><g><path d="M214 55h0"></path><path d="M438 55h0"></path><path d="M214 55h20"></path><g><path d="M234 55h0"></path><path d="M418 55h0"></path><g class="non-terminal"><path d="M234 55h0"></path><path d="M344 55h0"></path><rect x="234" y="44" width="110" height="22" rx="8" ry="8"></rect><text x="289" y="59">schemaName</text></g><path d="M344 55h10"></path><path d="M354 55h10"></path><g class="terminal"><path d="M364 55h0"></path><path d="M418 55h0"></path><rect x="364" y="44" width="54" height="22" rx="0" ry="0"></rect><text x="391" y="59">'.'</text></g></g><path d="M418 55h20"></path></g><path d="M438 55h20"></path></g><path d="M458 55h10"></path><g class="non-terminal"><path d="M468 55h0"></path><path d="M570 55h0"></path><rect x="468" y="44" width="102" height="22" rx="8" ry="8"></rect><text x="519" y="59">tableName</text></g></g><path d="M570 55h20"></path></g><path d="M 590 55 h 20 m 0 -10 v 20"></path></g></svg>