<?xml version="1.0" standalone="no"?>
<?xml-stylesheet href="light.css" type="text/css"?>
<!DOCTYPE svg PUBLIC "-//W3C//DTD SVG 1.1//EN" "http://www.w3.org/Graphics/SVG/1.1/DTD/svg11.dtd">
<svg xmlns="http://www.w3.org/2000/svg" class="railroad-diagram" width="838" height="86" viewBox="0 0 838 86"><g transform="translate(.5 .5)"><path d="M 20 45 v 20 m 0 -10 h 20.5"></path><g><path d="M40 55h0"></path><path d="M798 55h0"></path><path d="M40 55h20"></path><g><path d="M60 55h0"></path><path d="M778 55h0"></path><g class="terminal"><path d="M60 55h0"></path><path d="M138 55h0"></path><rect x="60" y="44" width="78" height="22" rx="0" ry="0"></rect><text x="99" y="59">EXPORT</text></g><path d="M138 55h10"></path><path d="M148 55h10"></path><g class="terminal"><path d="M158 55h0"></path><path d="M252 55h0"></path><rect x="158" y="44" width="94" height="22" rx="0" ry="0"></rect><text x="205" y="59">SYNOPSIS</text></g><path d="M252 55h10"></path><path d="M262 55h10"></path><g class="non-terminal"><path d="M272 55h0"></path><path d="M398 55h0"></path><rect x="272" y="44" width="126" height="22" rx="8" ry="8"></rect><text x="335" y="59">synopsisName</text></g><path d="M398 55h10"></path><g><path d="M408 55h0"></path><path d="M778 55h0"></path><path d="M408 55a10 10 0 0 0 10 -10v-15a10 10 0 0 1 10 -10"></path><g><path d="M428 20h330"></path></g><path d="M758 20a10 10 0 0 1 10 10v15a10 10 0 0 0 10 10"></path><path d="M408 55h20"></path><g><path d="M428 55h0"></path><path d="M758 55h0"></path><path d="M428 55h20"></path><g><path d="M448 55h0"></path><path d="M738 55h0"></path><g class="terminal"><path d="M448 55h0"></path><path d="M494 55h0"></path><rect x="448" y="44" width="46" height="22" rx="0" ry="0"></rect><text x="471" y="59">TO</text></g><path d="M494 55h10"></path><path d="M504 55h10"></path><g class="terminal"><path d="M514 55h0"></path><path d="M576 55h0"></path><rect x="514" y="44" width="62" height="22" rx="0" ry="0"></rect><text x="545" y="59">FILE</text></g><path d="M576 55h10"></path><path d="M586 55h10"></path><g class="non-terminal"><path d="M596 55h0"></path><path d="M738 55h0"></path><rect x="596" y="44" width="142" height="22" rx="8" ry="8"></rect><text x="667" y="59">exportFilePath</text></g></g><path d="M738 55h20"></path></g><path d="M758 55h20"></path></g></g><path d="M778 55h20"></path></g><path d="M 798 55 h 20 m 0 -10 v 20"></path></g></svg>