<?xml version="1.0" standalone="no"?>
<?xml-stylesheet href="light.css" type="text/css"?>
<!DOCTYPE svg PUBLIC "-//W3C//DTD SVG 1.1//EN" "http://www.w3.org/Graphics/SVG/1.1/DTD/svg11.dtd">
<svg xmlns="http://www.w3.org/2000/svg" class="railroad-diagram" width="790" height="86" viewBox="0 0 790 86"><g transform="translate(.5 .5)"><path d="M 20 45 v 20 m 0 -10 h 20.5"></path><g><path d="M40 55h0"></path><path d="M750 55h0"></path><path d="M40 55h20"></path><g><path d="M60 55h0"></path><path d="M730 55h0"></path><g class="terminal"><path d="M60 55h0"></path><path d="M138 55h0"></path><rect x="60" y="44" width="78" height="22" rx="0" ry="0"></rect><text x="99" y="59">EXPORT</text></g><path d="M138 55h10"></path><path d="M148 55h10"></path><g class="terminal"><path d="M158 55h0"></path><path d="M228 55h0"></path><rect x="158" y="44" width="70" height="22" rx="0" ry="0"></rect><text x="193" y="59">MODEL</text></g><path d="M228 55h10"></path><path d="M238 55h10"></path><g class="non-terminal"><path d="M248 55h0"></path><path d="M350 55h0"></path><rect x="248" y="44" width="102" height="22" rx="8" ry="8"></rect><text x="299" y="59">modelName</text></g><path d="M350 55h10"></path><g><path d="M360 55h0"></path><path d="M730 55h0"></path><path d="M360 55a10 10 0 0 0 10 -10v-15a10 10 0 0 1 10 -10"></path><g><path d="M380 20h330"></path></g><path d="M710 20a10 10 0 0 1 10 10v15a10 10 0 0 0 10 10"></path><path d="M360 55h20"></path><g><path d="M380 55h0"></path><path d="M710 55h0"></path><path d="M380 55h20"></path><g><path d="M400 55h0"></path><path d="M690 55h0"></path><g class="terminal"><path d="M400 55h0"></path><path d="M446 55h0"></path><rect x="400" y="44" width="46" height="22" rx="0" ry="0"></rect><text x="423" y="59">TO</text></g><path d="M446 55h10"></path><path d="M456 55h10"></path><g class="terminal"><path d="M466 55h0"></path><path d="M528 55h0"></path><rect x="466" y="44" width="62" height="22" rx="0" ry="0"></rect><text x="497" y="59">FILE</text></g><path d="M528 55h10"></path><path d="M538 55h10"></path><g class="non-terminal"><path d="M548 55h0"></path><path d="M690 55h0"></path><rect x="548" y="44" width="142" height="22" rx="8" ry="8"></rect><text x="619" y="59">exportFilePath</text></g></g><path d="M690 55h20"></path></g><path d="M710 55h20"></path></g></g><path d="M730 55h20"></path></g><path d="M 750 55 h 20 m 0 -10 v 20"></path></g></svg>