<?xml version="1.0" standalone="no"?>
<?xml-stylesheet href="light.css" type="text/css"?>
<!DOCTYPE svg PUBLIC "-//W3C//DTD SVG 1.1//EN" "http://www.w3.org/Graphics/SVG/1.1/DTD/svg11.dtd">
<svg xmlns="http://www.w3.org/2000/svg" class="railroad-diagram" width="508" height="110" viewBox="0 0 508 110"><g transform="translate(.5 .5)"><g><path d="M40 55h0"></path><path d="M468 55h0"></path><path d="M40 55h20"></path><g><path d="M60 55h0"></path><path d="M448 55h0"></path><g class="non-terminal"><path d="M60 55h0"></path><path d="M162 55h0"></path><rect x="60" y="44" width="102" height="22" rx="8" ry="8"></rect><text x="111" y="59">groupItem</text></g><path d="M162 55h10"></path><g><path d="M172 55h0"></path><path d="M448 55h0"></path><path d="M172 55a10 10 0 0 0 10 -10v-15a10 10 0 0 1 10 -10"></path><g><path d="M192 20h236"></path></g><path d="M428 20a10 10 0 0 1 10 10v15a10 10 0 0 0 10 10"></path><path d="M172 55h20"></path><g><path d="M192 55h0"></path><path d="M428 55h0"></path><path d="M192 55h10"></path><g><path d="M202 55h0"></path><path d="M418 55h0"></path><path d="M202 55h20"></path><g><path d="M222 55h0"></path><path d="M398 55h0"></path><g class="terminal"><path d="M222 55h0"></path><path d="M276 55h0"></path><rect x="222" y="44" width="54" height="22" rx="0" ry="0"></rect><text x="249" y="59">','</text></g><path d="M276 55h10"></path><path d="M286 55h10"></path><g class="non-terminal"><path d="M296 55h0"></path><path d="M398 55h0"></path><rect x="296" y="44" width="102" height="22" rx="8" ry="8"></rect><text x="347" y="59">groupItem</text></g></g><path d="M398 55h20"></path></g><path d="M418 55h10"></path><path d="M202 55a10 10 0 0 0 -10 10v15a10 10 0 0 0 10 10"></path><g><path d="M202 90h216"></path></g><path d="M418 90a10 10 0 0 0 10 -10v-15a10 10 0 0 0 -10 -10"></path></g><path d="M428 55h20"></path></g></g><path d="M448 55h20"></path></g></g></svg>
