<?xml version="1.0" standalone="no"?>
<?xml-stylesheet href="light.css" type="text/css"?>
<!DOCTYPE svg PUBLIC "-//W3C//DTD SVG 1.1//EN" "http://www.w3.org/Graphics/SVG/1.1/DTD/svg11.dtd">
<svg xmlns="http://www.w3.org/2000/svg" class="railroad-diagram" width="766" height="108" viewBox="0 0 766 108"><g transform="translate(.5 .5)"><path d="M 20 21 v 20 m 0 -10 h 20.5"></path><g><path d="M40 31h0"></path><path d="M726 31h0"></path><path d="M40 31h20"></path><g><path d="M60 31h0"></path><path d="M706 31h0"></path><g class="terminal"><path d="M60 31h0"></path><path d="M138 31h0"></path><rect x="60" y="20" width="78" height="22" rx="0" ry="0"></rect><text x="99" y="35">IMPORT</text></g><path d="M138 31h10"></path><path d="M148 31h10"></path><g class="terminal"><path d="M158 31h0"></path><path d="M228 31h0"></path><rect x="158" y="20" width="70" height="22" rx="0" ry="0"></rect><text x="193" y="35">MODEL</text></g><path d="M228 31h10"></path><path d="M238 31h10"></path><g class="non-terminal"><path d="M248 31h0"></path><path d="M350 31h0"></path><rect x="248" y="20" width="102" height="22" rx="8" ry="8"></rect><text x="299" y="35">modelName</text></g><path d="M350 31h10"></path><path d="M360 31h10"></path><g class="terminal"><path d="M370 31h0"></path><path d="M432 31h0"></path><rect x="370" y="20" width="62" height="22" rx="0" ry="0"></rect><text x="401" y="35">FROM</text></g><path d="M432 31h10"></path><g><path d="M442 31h0"></path><path d="M706 31h0"></path><path d="M442 31h20"></path><g><path d="M462 31h13"></path><path d="M673 31h13"></path><g class="non-terminal"><path d="M475 31h0"></path><path d="M673 31h0"></path><rect x="475" y="20" width="198" height="22" rx="8" ry="8"></rect><text x="574" y="35">binary_string_literal</text></g></g><path d="M686 31h20"></path><path d="M442 31a10 10 0 0 1 10 10v26a10 10 0 0 0 10 10"></path><g><path d="M462 77h0"></path><path d="M686 77h0"></path><g class="terminal"><path d="M462 77h0"></path><path d="M524 77h0"></path><rect x="462" y="66" width="62" height="22" rx="0" ry="0"></rect><text x="493" y="81">FILE</text></g><path d="M524 77h10"></path><path d="M534 77h10"></path><g class="non-terminal"><path d="M544 77h0"></path><path d="M686 77h0"></path><rect x="544" y="66" width="142" height="22" rx="8" ry="8"></rect><text x="615" y="81">importFilePath</text></g></g><path d="M686 77a10 10 0 0 0 10 -10v-26a10 10 0 0 1 10 -10"></path></g></g><path d="M706 31h20"></path></g><path d="M 726 31 h 20 m 0 -10 v 20"></path></g></svg>