<?xml version="1.0" standalone="no"?>
<?xml-stylesheet href="light.css" type="text/css"?>
<!DOCTYPE svg PUBLIC "-//W3C//DTD SVG 1.1//EN" "http://www.w3.org/Graphics/SVG/1.1/DTD/svg11.dtd">
<svg xmlns="http://www.w3.org/2000/svg" class="railroad-diagram" width="456" height="108" viewBox="0 0 456 108"><g transform="translate(.5 .5)"><path d="M 20 21 v 20 m 0 -10 h 20.5"></path><g><path d="M40 31h0"></path><path d="M416 31h0"></path><path d="M40 31h20"></path><g><path d="M60 31h0"></path><path d="M396 31h0"></path><g class="terminal"><path d="M60 31h0"></path><path d="M122 31h0"></path><rect x="60" y="20" width="62" height="22" rx="0" ry="0"></rect><text x="91" y="35">FROM</text></g><path d="M122 31h10"></path><g><path d="M132 31h0"></path><path d="M396 31h0"></path><path d="M132 31h20"></path><g><path d="M152 31h13"></path><path d="M363 31h13"></path><g class="non-terminal"><path d="M165 31h0"></path><path d="M363 31h0"></path><rect x="165" y="20" width="198" height="22" rx="8" ry="8"></rect><text x="264" y="35">binary_string_literal</text></g></g><path d="M376 31h20"></path><path d="M132 31a10 10 0 0 1 10 10v26a10 10 0 0 0 10 10"></path><g><path d="M152 77h0"></path><path d="M376 77h0"></path><g class="terminal"><path d="M152 77h0"></path><path d="M214 77h0"></path><rect x="152" y="66" width="62" height="22" rx="0" ry="0"></rect><text x="183" y="81">FILE</text></g><path d="M214 77h10"></path><path d="M224 77h10"></path><g class="non-terminal"><path d="M234 77h0"></path><path d="M376 77h0"></path><rect x="234" y="66" width="142" height="22" rx="8" ry="8"></rect><text x="305" y="81">importFilePath</text></g></g><path d="M376 77a10 10 0 0 0 10 -10v-26a10 10 0 0 1 10 -10"></path></g></g><path d="M396 31h20"></path></g><path d="M 416 31 h 20 m 0 -10 v 20"></path></g></svg>