<?xml version="1.0" standalone="no"?>
<?xml-stylesheet href="light.css" type="text/css"?>
<!DOCTYPE svg PUBLIC "-//W3C//DTD SVG 1.1//EN" "http://www.w3.org/Graphics/SVG/1.1/DTD/svg11.dtd">
<svg xmlns="http://www.w3.org/2000/svg" class="railroad-diagram" width="796" height="132" viewBox="0 0 796 132"><g transform="translate(.5 .5)"><path d="M 20 45 v 20 m 0 -10 h 20.5"></path><g><path d="M40 55h0"></path><path d="M756 55h0"></path><path d="M40 55h20"></path><g><path d="M60 55h0"></path><path d="M736 55h0"></path><g><path d="M60 55h0"></path><path d="M250 55h0"></path><path d="M60 55h20"></path><g><path d="M80 55h0"></path><path d="M230 55h0"></path><g><path d="M80 55h0"></path><path d="M230 55h0"></path><path d="M80 55a10 10 0 0 0 10 -10v-15a10 10 0 0 1 10 -10"></path><g><path d="M100 20h110"></path></g><path d="M210 20a10 10 0 0 1 10 10v15a10 10 0 0 0 10 10"></path><path d="M80 55h20"></path><g><path d="M100 55h0"></path><path d="M210 55h0"></path><path d="M100 55h20"></path><g><path d="M120 55h0"></path><path d="M190 55h0"></path><g class="terminal"><path d="M120 55h0"></path><path d="M190 55h0"></path><rect x="120" y="44" width="70" height="22" rx="0" ry="0"></rect><text x="155" y="59">LOCAL</text></g></g><path d="M190 55h20"></path></g><path d="M210 55h20"></path></g></g><path d="M230 55h20"></path><path d="M60 55a10 10 0 0 1 10 10v26a10 10 0 0 0 10 10"></path><g><path d="M80 101h36"></path><path d="M194 101h36"></path><g class="terminal"><path d="M116 101h0"></path><path d="M194 101h0"></path><rect x="116" y="90" width="78" height="22" rx="0" ry="0"></rect><text x="155" y="105">REMOTE</text></g></g><path d="M230 101a10 10 0 0 0 10 -10v-26a10 10 0 0 1 10 -10"></path></g><path d="M250 55h10"></path><g class="terminal"><path d="M260 55h0"></path><path d="M330 55h0"></path><rect x="260" y="44" width="70" height="22" rx="0" ry="0"></rect><text x="295" y="59">CLASS</text></g><path d="M330 55h10"></path><path d="M340 55h10"></path><g class="non-terminal"><path d="M350 55h0"></path><path d="M524 55h0"></path><rect x="350" y="44" width="174" height="22" rx="8" ry="8"></rect><text x="437" y="59">modeltypeClassName</text></g><path d="M524 55h10"></path><path d="M534 55h10"></path><g class="terminal"><path d="M544 55h0"></path><path d="M590 55h0"></path><rect x="544" y="44" width="46" height="22" rx="0" ry="0"></rect><text x="567" y="59">IN</text></g><path d="M590 55h10"></path><path d="M600 55h10"></path><g class="non-terminal"><path d="M610 55h0"></path><path d="M736 55h0"></path><rect x="610" y="44" width="126" height="22" rx="8" ry="8"></rect><text x="673" y="59">modeltypeUri</text></g></g><path d="M736 55h20"></path></g><path d="M 756 55 h 20 m 0 -10 v 20"></path></g></svg>