<?xml version="1.0" standalone="no"?>
<?xml-stylesheet href="light.css" type="text/css"?>
<!DOCTYPE svg PUBLIC "-//W3C//DTD SVG 1.1//EN" "http://www.w3.org/Graphics/SVG/1.1/DTD/svg11.dtd">
<svg xmlns="http://www.w3.org/2000/svg" class="railroad-diagram" width="724" height="108" viewBox="0 0 724 108"><g transform="translate(.5 .5)"><g><path d="M40 31h0"></path><path d="M684 31h0"></path><path d="M40 31h20"></path><g><path d="M60 31h0"></path><path d="M664 31h0"></path><g><path d="M60 31h0"></path><path d="M178 31h0"></path><path d="M60 31h20"></path><g><path d="M80 31h4"></path><path d="M154 31h4"></path><g class="terminal"><path d="M84 31h0"></path><path d="M154 31h0"></path><rect x="84" y="20" width="70" height="22" rx="0" ry="0"></rect><text x="119" y="35">LOCAL</text></g></g><path d="M158 31h20"></path><path d="M60 31a10 10 0 0 1 10 10v26a10 10 0 0 0 10 10"></path><g><path d="M80 77h0"></path><path d="M158 77h0"></path><g class="terminal"><path d="M80 77h0"></path><path d="M158 77h0"></path><rect x="80" y="66" width="78" height="22" rx="0" ry="0"></rect><text x="119" y="81">REMOTE</text></g></g><path d="M158 77a10 10 0 0 0 10 -10v-26a10 10 0 0 1 10 -10"></path></g><path d="M178 31h10"></path><g class="terminal"><path d="M188 31h0"></path><path d="M258 31h0"></path><rect x="188" y="20" width="70" height="22" rx="0" ry="0"></rect><text x="223" y="35">CLASS</text></g><path d="M258 31h10"></path><path d="M268 31h10"></path><g class="non-terminal"><path d="M278 31h0"></path><path d="M452 31h0"></path><rect x="278" y="20" width="174" height="22" rx="8" ry="8"></rect><text x="365" y="35">modeltypeClassName</text></g><path d="M452 31h10"></path><path d="M462 31h10"></path><g class="terminal"><path d="M472 31h0"></path><path d="M518 31h0"></path><rect x="472" y="20" width="46" height="22" rx="0" ry="0"></rect><text x="495" y="35">IN</text></g><path d="M518 31h10"></path><path d="M528 31h10"></path><g class="non-terminal"><path d="M538 31h0"></path><path d="M664 31h0"></path><rect x="538" y="20" width="126" height="22" rx="8" ry="8"></rect><text x="601" y="35">modeltypeUri</text></g></g><path d="M664 31h20"></path></g></g></svg>
