<?xml version="1.0" standalone="no"?>
<?xml-stylesheet href="light.css" type="text/css"?>
<!DOCTYPE svg PUBLIC "-//W3C//DTD SVG 1.1//EN" "http://www.w3.org/Graphics/SVG/1.1/DTD/svg11.dtd">
<svg xmlns="http://www.w3.org/2000/svg" class="railroad-diagram" width="434" height="62" viewBox="0 0 434 62"><g transform="translate(.5 .5)"><g><path d="M40 31h0"></path><path d="M394 31h0"></path><path d="M40 31h20"></path><g><path d="M60 31h0"></path><path d="M374 31h0"></path><g class="non-terminal"><path d="M60 31h0"></path><path d="M162 31h0"></path><rect x="60" y="20" width="102" height="22" rx="8" ry="8"></rect><text x="111" y="35">optionKey</text></g><path d="M162 31h10"></path><path d="M172 31h10"></path><g class="terminal"><path d="M182 31h0"></path><path d="M236 31h0"></path><rect x="182" y="20" width="54" height="22" rx="0" ry="0"></rect><text x="209" y="35">'='</text></g><path d="M236 31h10"></path><path d="M246 31h10"></path><g class="non-terminal"><path d="M256 31h0"></path><path d="M374 31h0"></path><rect x="256" y="20" width="118" height="22" rx="8" ry="8"></rect><text x="315" y="35">optionValue</text></g></g><path d="M374 31h20"></path></g></g></svg>
