<?xml version="1.0" standalone="no"?>
<?xml-stylesheet href="light.css" type="text/css"?>
<!DOCTYPE svg PUBLIC "-//W3C//DTD SVG 1.1//EN" "http://www.w3.org/Graphics/SVG/1.1/DTD/svg11.dtd">
<svg xmlns="http://www.w3.org/2000/svg" class="railroad-diagram" width="504" height="132" viewBox="0 0 504 132"><g transform="translate(.5 .5)"><g><path d="M40 55h0"></path><path d="M464 55h0"></path><path d="M40 55h20"></path><g><path d="M60 55h0"></path><path d="M444 55h0"></path><g class="non-terminal"><path d="M60 55h0"></path><path d="M170 55h0"></path><rect x="60" y="44" width="110" height="22" rx="8" ry="8"></rect><text x="115" y="59">expression</text></g><path d="M170 55h10"></path><g><path d="M180 55h0"></path><path d="M444 55h0"></path><path d="M180 55a10 10 0 0 0 10 -10v-15a10 10 0 0 1 10 -10"></path><g><path d="M200 20h224"></path></g><path d="M424 20a10 10 0 0 1 10 10v15a10 10 0 0 0 10 10"></path><path d="M180 55h20"></path><g><path d="M200 55h0"></path><path d="M424 55h0"></path><path d="M200 55h20"></path><g><path d="M220 55h0"></path><path d="M404 55h0"></path><g class="terminal"><path d="M220 55h0"></path><path d="M266 55h0"></path><rect x="220" y="44" width="46" height="22" rx="0" ry="0"></rect><text x="243" y="59">AS</text></g><path d="M266 55h10"></path><path d="M276 55h10"></path><g class="non-terminal"><path d="M286 55h0"></path><path d="M404 55h0"></path><rect x="286" y="44" width="118" height="22" rx="8" ry="8"></rect><text x="345" y="59">columnAlias</text></g></g><path d="M404 55h20"></path></g><path d="M424 55h20"></path></g></g><path d="M444 55h20"></path><path d="M40 55a10 10 0 0 1 10 10v26a10 10 0 0 0 10 10"></path><g><path d="M60 101h63"></path><path d="M381 101h63"></path><g class="non-terminal"><path d="M123 101h0"></path><path d="M233 101h0"></path><rect x="123" y="90" width="110" height="22" rx="8" ry="8"></rect><text x="178" y="105">tableAlias</text></g><path d="M233 101h10"></path><path d="M243 101h10"></path><g class="terminal"><path d="M253 101h0"></path><path d="M307 101h0"></path><rect x="253" y="90" width="54" height="22" rx="0" ry="0"></rect><text x="280" y="105">'.'</text></g><path d="M307 101h10"></path><path d="M317 101h10"></path><g class="terminal"><path d="M327 101h0"></path><path d="M381 101h0"></path><rect x="327" y="90" width="54" height="22" rx="0" ry="0"></rect><text x="354" y="105">'*'</text></g></g><path d="M444 101a10 10 0 0 0 10 -10v-26a10 10 0 0 1 10 -10"></path></g></g></svg>
