<?xml version="1.0" standalone="no"?>
<?xml-stylesheet href="light.css" type="text/css"?>
<!DOCTYPE svg PUBLIC "-//W3C//DTD SVG 1.1//EN" "http://www.w3.org/Graphics/SVG/1.1/DTD/svg11.dtd">
<svg xmlns="http://www.w3.org/2000/svg" class="railroad-diagram" width="490" height="86" viewBox="0 0 490 86"><g transform="translate(.5 .5)"><g><path d="M40 55h0"></path><path d="M450 55h0"></path><path d="M40 55h20"></path><g><path d="M60 55h0"></path><path d="M430 55h0"></path><g><path d="M60 55h0"></path><path d="M430 55h0"></path><path d="M60 55a10 10 0 0 0 10 -10v-15a10 10 0 0 1 10 -10"></path><g><path d="M80 20h330"></path></g><path d="M410 20a10 10 0 0 1 10 10v15a10 10 0 0 0 10 10"></path><path d="M60 55h20"></path><g><path d="M80 55h0"></path><path d="M410 55h0"></path><path d="M80 55h20"></path><g><path d="M100 55h0"></path><path d="M390 55h0"></path><g class="terminal"><path d="M100 55h0"></path><path d="M170 55h0"></path><rect x="100" y="44" width="70" height="22" rx="0" ry="0"></rect><text x="135" y="59">ORDER</text></g><path d="M170 55h10"></path><path d="M180 55h10"></path><g class="terminal"><path d="M190 55h0"></path><path d="M236 55h0"></path><rect x="190" y="44" width="46" height="22" rx="0" ry="0"></rect><text x="213" y="59">BY</text></g><path d="M236 55h10"></path><path d="M246 55h10"></path><g class="non-terminal"><path d="M256 55h0"></path><path d="M390 55h0"></path><rect x="256" y="44" width="134" height="22" rx="8" ry="8"></rect><text x="323" y="59">orderItemList</text></g></g><path d="M390 55h20"></path></g><path d="M410 55h20"></path></g></g><path d="M430 55h20"></path></g></g></svg>
