<?xml version="1.0" standalone="no"?>
<?xml-stylesheet href="light.css" type="text/css"?>
<!DOCTYPE svg PUBLIC "-//W3C//DTD SVG 1.1//EN" "http://www.w3.org/Graphics/SVG/1.1/DTD/svg11.dtd">
<svg xmlns="http://www.w3.org/2000/svg" class="railroad-diagram" width="524" height="110" viewBox="0 0 524 110"><g transform="translate(.5 .5)"><g><path d="M40 55h0"></path><path d="M484 55h0"></path><path d="M40 55h20"></path><g><path d="M60 55h0"></path><path d="M464 55h0"></path><g class="non-terminal"><path d="M60 55h0"></path><path d="M170 55h0"></path><rect x="60" y="44" width="110" height="22" rx="8" ry="8"></rect><text x="115" y="59">selectItem</text></g><path d="M170 55h10"></path><g><path d="M180 55h0"></path><path d="M464 55h0"></path><path d="M180 55a10 10 0 0 0 10 -10v-15a10 10 0 0 1 10 -10"></path><g><path d="M200 20h244"></path></g><path d="M444 20a10 10 0 0 1 10 10v15a10 10 0 0 0 10 10"></path><path d="M180 55h20"></path><g><path d="M200 55h0"></path><path d="M444 55h0"></path><path d="M200 55h10"></path><g><path d="M210 55h0"></path><path d="M434 55h0"></path><path d="M210 55h20"></path><g><path d="M230 55h0"></path><path d="M414 55h0"></path><g class="terminal"><path d="M230 55h0"></path><path d="M284 55h0"></path><rect x="230" y="44" width="54" height="22" rx="0" ry="0"></rect><text x="257" y="59">','</text></g><path d="M284 55h10"></path><path d="M294 55h10"></path><g class="non-terminal"><path d="M304 55h0"></path><path d="M414 55h0"></path><rect x="304" y="44" width="110" height="22" rx="8" ry="8"></rect><text x="359" y="59">selectItem</text></g></g><path d="M414 55h20"></path></g><path d="M434 55h10"></path><path d="M210 55a10 10 0 0 0 -10 10v15a10 10 0 0 0 10 10"></path><g><path d="M210 90h224"></path></g><path d="M434 90a10 10 0 0 0 10 -10v-15a10 10 0 0 0 -10 -10"></path></g><path d="M444 55h20"></path></g></g><path d="M464 55h20"></path></g></g></svg>
