<?xml version="1.0" standalone="no"?>
<?xml-stylesheet href="light.css" type="text/css"?>
<!DOCTYPE svg PUBLIC "-//W3C//DTD SVG 1.1//EN" "http://www.w3.org/Graphics/SVG/1.1/DTD/svg11.dtd">
<svg xmlns="http://www.w3.org/2000/svg" class="railroad-diagram" width="464" height="86" viewBox="0 0 464 86"><g transform="translate(.5 .5)"><path d="M 20 45 v 20 m 0 -10 h 20.5"></path><g><path d="M40 55h0"></path><path d="M424 55h0"></path><path d="M40 55h20"></path><g><path d="M60 55h0"></path><path d="M404 55h0"></path><g><path d="M60 55h0"></path><path d="M404 55h0"></path><path d="M60 55a10 10 0 0 0 10 -10v-15a10 10 0 0 1 10 -10"></path><g><path d="M80 20h304"></path></g><path d="M384 20a10 10 0 0 1 10 10v15a10 10 0 0 0 10 10"></path><path d="M60 55h20"></path><g><path d="M80 55h0"></path><path d="M384 55h0"></path><path d="M80 55h20"></path><g><path d="M100 55h0"></path><path d="M364 55h0"></path><g class="terminal"><path d="M100 55h0"></path><path d="M178 55h0"></path><rect x="100" y="44" width="78" height="22" rx="0" ry="0"></rect><text x="139" y="59">HAVING</text></g><path d="M178 55h10"></path><path d="M188 55h10"></path><g class="non-terminal"><path d="M198 55h0"></path><path d="M364 55h0"></path><rect x="198" y="44" width="166" height="22" rx="8" ry="8"></rect><text x="281" y="59">booleanExpression</text></g></g><path d="M364 55h20"></path></g><path d="M384 55h20"></path></g></g><path d="M404 55h20"></path></g><path d="M 424 55 h 20 m 0 -10 v 20"></path></g></svg>