<?xml version="1.0" standalone="no"?>
<?xml-stylesheet href="light.css" type="text/css"?>
<!DOCTYPE svg PUBLIC "-//W3C//DTD SVG 1.1//EN" "http://www.w3.org/Graphics/SVG/1.1/DTD/svg11.dtd">
<svg xmlns="http://www.w3.org/2000/svg" class="railroad-diagram" width="674" height="132" viewBox="0 0 674 132"><g transform="translate(.5 .5)"><path d="M 20 45 v 20 m 0 -10 h 20.5"></path><g><path d="M40 55h0"></path><path d="M634 55h0"></path><path d="M40 55h20"></path><g><path d="M60 55h0"></path><path d="M614 55h0"></path><g><path d="M60 55h0"></path><path d="M614 55h0"></path><path d="M60 55a10 10 0 0 0 10 -10v-15a10 10 0 0 1 10 -10"></path><g><path d="M80 20h514"></path></g><path d="M594 20a10 10 0 0 1 10 10v15a10 10 0 0 0 10 10"></path><path d="M60 55h20"></path><g><path d="M80 55h0"></path><path d="M594 55h0"></path><path d="M80 55h20"></path><g><path d="M100 55h0"></path><path d="M574 55h0"></path><g class="terminal"><path d="M100 55h0"></path><path d="M178 55h0"></path><rect x="100" y="44" width="78" height="22" rx="0" ry="0"></rect><text x="139" y="59">WITHIN</text></g><path d="M178 55h10"></path><g><path d="M188 55h0"></path><path d="M574 55h0"></path><path d="M188 55h20"></path><g><path d="M208 55h45"></path><path d="M509 55h45"></path><g class="non-terminal"><path d="M253 55h0"></path><path d="M403 55h0"></path><rect x="253" y="44" width="150" height="22" rx="8" ry="8"></rect><text x="328" y="59">numeric_literal</text></g><path d="M403 55h10"></path><path d="M413 55h10"></path><g class="terminal"><path d="M423 55h0"></path><path d="M509 55h0"></path><rect x="423" y="44" width="86" height="22" rx="0" ry="0"></rect><text x="466" y="59">SECONDS</text></g></g><path d="M554 55h20"></path><path d="M188 55a10 10 0 0 1 10 10v26a10 10 0 0 0 10 10"></path><g><path d="M208 101h0"></path><path d="M554 101h0"></path><g class="non-terminal"><path d="M208 101h0"></path><path d="M358 101h0"></path><rect x="208" y="90" width="150" height="22" rx="8" ry="8"></rect><text x="283" y="105">numeric_literal</text></g><path d="M358 101h10"></path><path d="M368 101h10"></path><g class="terminal"><path d="M378 101h0"></path><path d="M464 101h0"></path><rect x="378" y="90" width="86" height="22" rx="0" ry="0"></rect><text x="421" y="105">PERCENT</text></g><path d="M464 101h10"></path><path d="M474 101h10"></path><g class="terminal"><path d="M484 101h0"></path><path d="M554 101h0"></path><rect x="484" y="90" width="70" height="22" rx="0" ry="0"></rect><text x="519" y="105">ERROR</text></g></g><path d="M554 101a10 10 0 0 0 10 -10v-26a10 10 0 0 1 10 -10"></path></g></g><path d="M574 55h20"></path></g><path d="M594 55h20"></path></g></g><path d="M614 55h20"></path></g><path d="M 634 55 h 20 m 0 -10 v 20"></path></g></svg>