<?xml version="1.0" standalone="no"?>
<?xml-stylesheet href="light.css" type="text/css"?>
<!DOCTYPE svg PUBLIC "-//W3C//DTD SVG 1.1//EN" "http://www.w3.org/Graphics/SVG/1.1/DTD/svg11.dtd">
<svg xmlns="http://www.w3.org/2000/svg" class="railroad-diagram" width="700" height="86" viewBox="0 0 700 86"><g transform="translate(.5 .5)"><g><path d="M40 55h0"></path><path d="M660 55h0"></path><path d="M40 55h20"></path><g><path d="M60 55h0"></path><path d="M640 55h0"></path><g><path d="M60 55h0"></path><path d="M640 55h0"></path><path d="M60 55a10 10 0 0 0 10 -10v-15a10 10 0 0 1 10 -10"></path><g><path d="M80 20h540"></path></g><path d="M620 20a10 10 0 0 1 10 10v15a10 10 0 0 0 10 10"></path><path d="M60 55h20"></path><g><path d="M80 55h0"></path><path d="M620 55h0"></path><path d="M80 55h20"></path><g><path d="M100 55h0"></path><path d="M600 55h0"></path><g class="terminal"><path d="M100 55h0"></path><path d="M178 55h0"></path><rect x="100" y="44" width="78" height="22" rx="0" ry="0"></rect><text x="139" y="59">WHATIF</text></g><path d="M178 55h10"></path><path d="M188 55h10"></path><g class="non-terminal"><path d="M198 55h0"></path><path d="M364 55h0"></path><rect x="198" y="44" width="166" height="22" rx="8" ry="8"></rect><text x="281" y="59">booleanExpression</text></g><path d="M364 55h10"></path><path d="M374 55h10"></path><g class="terminal"><path d="M384 55h0"></path><path d="M430 55h0"></path><rect x="384" y="44" width="46" height="22" rx="0" ry="0"></rect><text x="407" y="59">TO</text></g><path d="M430 55h10"></path><path d="M440 55h10"></path><g class="non-terminal"><path d="M450 55h0"></path><path d="M600 55h0"></path><rect x="450" y="44" width="150" height="22" rx="8" ry="8"></rect><text x="525" y="59">numeric_literal</text></g></g><path d="M600 55h20"></path></g><path d="M620 55h20"></path></g></g><path d="M640 55h20"></path></g></g></svg>
