<?xml version="1.0" standalone="no"?>
<?xml-stylesheet href="light.css" type="text/css"?>
<!DOCTYPE svg PUBLIC "-//W3C//DTD SVG 1.1//EN" "http://www.w3.org/Graphics/SVG/1.1/DTD/svg11.dtd">
<svg xmlns="http://www.w3.org/2000/svg" class="railroad-diagram" width="548" height="132" viewBox="0 0 548 132"><g transform="translate(.5 .5)"><path d="M 20 45 v 20 m 0 -10 h 20.5"></path><g><path d="M40 55h0"></path><path d="M508 55h0"></path><path d="M40 55h20"></path><g><path d="M60 55h0"></path><path d="M488 55h0"></path><g class="terminal"><path d="M60 55h0"></path><path d="M138 55h0"></path><rect x="60" y="44" width="78" height="22" rx="0" ry="0"></rect><text x="99" y="59">SELECT</text></g><path d="M138 55h10"></path><g><path d="M148 55h0"></path><path d="M306 55h0"></path><path d="M148 55a10 10 0 0 0 10 -10v-15a10 10 0 0 1 10 -10"></path><g><path d="M168 20h118"></path></g><path d="M286 20a10 10 0 0 1 10 10v15a10 10 0 0 0 10 10"></path><path d="M148 55h20"></path><g class="terminal"><path d="M168 55h0"></path><path d="M286 55h0"></path><rect x="168" y="44" width="118" height="22" rx="0" ry="0"></rect><text x="227" y="59">APPROXIMATE</text></g><path d="M286 55h20"></path></g><g><path d="M306 55h0"></path><path d="M488 55h0"></path><path d="M306 55h20"></path><g><path d="M326 55h0"></path><path d="M468 55h0"></path><g class="non-terminal"><path d="M326 55h0"></path><path d="M468 55h0"></path><rect x="326" y="44" width="142" height="22" rx="8" ry="8"></rect><text x="397" y="59">selectItemList</text></g></g><path d="M468 55h20"></path><path d="M306 55a10 10 0 0 1 10 10v26a10 10 0 0 0 10 10"></path><g><path d="M326 101h44"></path><path d="M424 101h44"></path><g class="terminal"><path d="M370 101h0"></path><path d="M424 101h0"></path><rect x="370" y="90" width="54" height="22" rx="0" ry="0"></rect><text x="397" y="105">'*'</text></g></g><path d="M468 101a10 10 0 0 0 10 -10v-26a10 10 0 0 1 10 -10"></path></g></g><path d="M488 55h20"></path></g></g></svg>
