<?xml version="1.0" standalone="no"?>
<?xml-stylesheet href="light.css" type="text/css"?>
<!DOCTYPE svg PUBLIC "-//W3C//DTD SVG 1.1//EN" "http://www.w3.org/Graphics/SVG/1.1/DTD/svg11.dtd">
<svg xmlns="http://www.w3.org/2000/svg" class="railroad-diagram" width="716" height="132" viewBox="0 0 716 132"><g transform="translate(.5 .5)"><path d="M 20 45 v 20 m 0 -10 h 20.5"></path><g><path d="M40 55h0"></path><path d="M676 55h0"></path><path d="M40 55h20"></path><g><path d="M60 55h0"></path><path d="M656 55h0"></path><g><path d="M60 55h0"></path><path d="M218 55h0"></path><path d="M60 55a10 10 0 0 0 10 -10v-15a10 10 0 0 1 10 -10"></path><g><path d="M80 20h118"></path></g><path d="M198 20a10 10 0 0 1 10 10v15a10 10 0 0 0 10 10"></path><path d="M60 55h20"></path><g class="terminal"><path d="M80 55h0"></path><path d="M198 55h0"></path><rect x="80" y="44" width="118" height="22" rx="0" ry="0"></rect><text x="139" y="59">INCREMENTAL</text></g><path d="M198 55h20"></path></g><path d="M218 55h10"></path><g class="terminal"><path d="M228 55h0"></path><path d="M306 55h0"></path><rect x="228" y="44" width="78" height="22" rx="0" ry="0"></rect><text x="267" y="59">SELECT</text></g><path d="M306 55h10"></path><g><path d="M316 55h0"></path><path d="M474 55h0"></path><path d="M316 55a10 10 0 0 0 10 -10v-15a10 10 0 0 1 10 -10"></path><g><path d="M336 20h118"></path></g><path d="M454 20a10 10 0 0 1 10 10v15a10 10 0 0 0 10 10"></path><path d="M316 55h20"></path><g class="terminal"><path d="M336 55h0"></path><path d="M454 55h0"></path><rect x="336" y="44" width="118" height="22" rx="0" ry="0"></rect><text x="395" y="59">APPROXIMATE</text></g><path d="M454 55h20"></path></g><g><path d="M474 55h0"></path><path d="M656 55h0"></path><path d="M474 55h20"></path><g><path d="M494 55h0"></path><path d="M636 55h0"></path><g class="non-terminal"><path d="M494 55h0"></path><path d="M636 55h0"></path><rect x="494" y="44" width="142" height="22" rx="8" ry="8"></rect><text x="565" y="59">selectItemList</text></g></g><path d="M636 55h20"></path><path d="M474 55a10 10 0 0 1 10 10v26a10 10 0 0 0 10 10"></path><g><path d="M494 101h44"></path><path d="M592 101h44"></path><g class="terminal"><path d="M538 101h0"></path><path d="M592 101h0"></path><rect x="538" y="90" width="54" height="22" rx="0" ry="0"></rect><text x="565" y="105">'*'</text></g></g><path d="M636 101a10 10 0 0 0 10 -10v-26a10 10 0 0 1 10 -10"></path></g></g><path d="M656 55h20"></path></g></g></svg>
