<?xml version="1.0" standalone="no"?>
<?xml-stylesheet href="light.css" type="text/css"?>
<!DOCTYPE svg PUBLIC "-//W3C//DTD SVG 1.1//EN" "http://www.w3.org/Graphics/SVG/1.1/DTD/svg11.dtd">
<svg xmlns="http://www.w3.org/2000/svg" class="railroad-diagram" width="838" height="134" viewBox="0 0 838 134"><g transform="translate(.5 .5)"><path d="M 20 69 v 20 m 0 -10 h 20.5"></path><g><path d="M40 79h0"></path><path d="M798 79h0"></path><path d="M40 79h20"></path><g><path d="M60 79h0"></path><path d="M778 79h0"></path><g><path d="M60 79h0"></path><path d="M778 79h0"></path><path d="M60 79a10 10 0 0 0 10 -10v-39a10 10 0 0 1 10 -10"></path><g><path d="M80 20h678"></path></g><path d="M758 20a10 10 0 0 1 10 10v39a10 10 0 0 0 10 10"></path><path d="M60 79h20"></path><g><path d="M80 79h0"></path><path d="M758 79h0"></path><path d="M80 79h20"></path><g><path d="M100 79h0"></path><path d="M738 79h0"></path><g class="terminal"><path d="M100 79h0"></path><path d="M170 79h0"></path><rect x="100" y="68" width="70" height="22" rx="0" ry="0"></rect><text x="135" y="83">WHERE</text></g><path d="M170 79h10"></path><path d="M180 79h10"></path><g class="non-terminal"><path d="M190 79h0"></path><path d="M372 79h0"></path><rect x="190" y="68" width="182" height="22" rx="8" ry="8"></rect><text x="281" y="83">showFilterCondition</text></g><path d="M372 79h10"></path><g><path d="M382 79h0"></path><path d="M738 79h0"></path><path d="M382 79a10 10 0 0 0 10 -10v-15a10 10 0 0 1 10 -10"></path><g><path d="M402 44h316"></path></g><path d="M718 44a10 10 0 0 1 10 10v15a10 10 0 0 0 10 10"></path><path d="M382 79h20"></path><g><path d="M402 79h0"></path><path d="M718 79h0"></path><path d="M402 79h10"></path><g><path d="M412 79h0"></path><path d="M708 79h0"></path><path d="M412 79h20"></path><g><path d="M432 79h0"></path><path d="M688 79h0"></path><g class="terminal"><path d="M432 79h0"></path><path d="M486 79h0"></path><rect x="432" y="68" width="54" height="22" rx="0" ry="0"></rect><text x="459" y="83">AND</text></g><path d="M486 79h10"></path><path d="M496 79h10"></path><g class="non-terminal"><path d="M506 79h0"></path><path d="M688 79h0"></path><rect x="506" y="68" width="182" height="22" rx="8" ry="8"></rect><text x="597" y="83">showFilterCondition</text></g></g><path d="M688 79h20"></path></g><path d="M708 79h10"></path><path d="M412 79a10 10 0 0 0 -10 10v15a10 10 0 0 0 10 10"></path><g><path d="M412 114h296"></path></g><path d="M708 114a10 10 0 0 0 10 -10v-15a10 10 0 0 0 -10 -10"></path></g><path d="M718 79h20"></path></g></g><path d="M738 79h20"></path></g><path d="M758 79h20"></path></g></g><path d="M778 79h20"></path></g><path d="M 798 79 h 20 m 0 -10 v 20"></path></g></svg>