<?xml version="1.0" standalone="no"?>
<?xml-stylesheet href="light.css" type="text/css"?>
<!DOCTYPE svg PUBLIC "-//W3C//DTD SVG 1.1//EN" "http://www.w3.org/Graphics/SVG/1.1/DTD/svg11.dtd">
<svg xmlns="http://www.w3.org/2000/svg" class="railroad-diagram" width="342" height="246" viewBox="0 0 342 246"><g transform="translate(.5 .5)"><path d="M 20 21 v 20 m 0 -10 h 20.5"></path><g><path d="M40 31h0"></path><path d="M302 31h0"></path><path d="M40 31h20"></path><g><path d="M60 31h0"></path><path d="M282 31h0"></path><g class="terminal"><path d="M60 31h0"></path><path d="M122 31h0"></path><rect x="60" y="20" width="62" height="22" rx="0" ry="0"></rect><text x="91" y="35">SHOW</text></g><path d="M122 31h10"></path><g><path d="M132 31h0"></path><path d="M282 31h0"></path><path d="M132 31h20"></path><g><path d="M152 31h0"></path><path d="M262 31h0"></path><g class="terminal"><path d="M152 31h0"></path><path d="M262 31h0"></path><rect x="152" y="20" width="110" height="22" rx="0" ry="0"></rect><text x="207" y="35">MODELTYPES</text></g></g><path d="M262 31h20"></path><path d="M132 31a10 10 0 0 1 10 10v26a10 10 0 0 0 10 10"></path><g><path d="M152 77h16"></path><path d="M246 77h16"></path><g class="terminal"><path d="M168 77h0"></path><path d="M246 77h0"></path><rect x="168" y="66" width="78" height="22" rx="0" ry="0"></rect><text x="207" y="81">MODELS</text></g></g><path d="M262 77a10 10 0 0 0 10 -10v-26a10 10 0 0 1 10 -10"></path><path d="M132 31a10 10 0 0 1 10 10v72a10 10 0 0 0 10 10"></path><g><path d="M152 123h8"></path><path d="M254 123h8"></path><g class="terminal"><path d="M160 123h0"></path><path d="M254 123h0"></path><rect x="160" y="112" width="94" height="22" rx="0" ry="0"></rect><text x="207" y="127">SYNOPSES</text></g></g><path d="M262 123a10 10 0 0 0 10 -10v-72a10 10 0 0 1 10 -10"></path><path d="M132 31a10 10 0 0 1 10 10v118a10 10 0 0 0 10 10"></path><g><path d="M152 169h12"></path><path d="M250 169h12"></path><g class="terminal"><path d="M164 169h0"></path><path d="M250 169h0"></path><rect x="164" y="158" width="86" height="22" rx="0" ry="0"></rect><text x="207" y="173">SCHEMAS</text></g></g><path d="M262 169a10 10 0 0 0 10 -10v-118a10 10 0 0 1 10 -10"></path><path d="M132 31a10 10 0 0 1 10 10v164a10 10 0 0 0 10 10"></path><g><path d="M152 215h16"></path><path d="M246 215h16"></path><g class="terminal"><path d="M168 215h0"></path><path d="M246 215h0"></path><rect x="168" y="204" width="78" height="22" rx="0" ry="0"></rect><text x="207" y="219">TABLES</text></g></g><path d="M262 215a10 10 0 0 0 10 -10v-164a10 10 0 0 1 10 -10"></path></g></g><path d="M282 31h20"></path></g><path d="M 302 31 h 20 m 0 -10 v 20"></path></g></svg>