<?xml version="1.0" standalone="no"?>
<?xml-stylesheet href="light.css" type="text/css"?>
<!DOCTYPE svg PUBLIC "-//W3C//DTD SVG 1.1//EN" "http://www.w3.org/Graphics/SVG/1.1/DTD/svg11.dtd">
<svg xmlns="http://www.w3.org/2000/svg" class="railroad-diagram" width="590" height="108" viewBox="0 0 590 108"><g transform="translate(.5 .5)"><path d="M 20 21 v 20 m 0 -10 h 20.5"></path><g><path d="M40 31h0"></path><path d="M550 31h0"></path><path d="M40 31h20"></path><g><path d="M60 31h0"></path><path d="M530 31h0"></path><g class="non-terminal"><path d="M60 31h0"></path><path d="M170 31h0"></path><rect x="60" y="20" width="110" height="22" rx="8" ry="8"></rect><text x="115" y="35">columnName</text></g><path d="M170 31h10"></path><g><path d="M180 31h0"></path><path d="M282 31h0"></path><path d="M180 31h20"></path><g><path d="M200 31h4"></path><path d="M258 31h4"></path><g class="terminal"><path d="M204 31h0"></path><path d="M258 31h0"></path><rect x="204" y="20" width="54" height="22" rx="0" ry="0"></rect><text x="231" y="35">'='</text></g></g><path d="M262 31h20"></path><path d="M180 31a10 10 0 0 1 10 10v26a10 10 0 0 0 10 10"></path><g><path d="M200 77h0"></path><path d="M262 77h0"></path><g class="terminal"><path d="M200 77h0"></path><path d="M262 77h0"></path><rect x="200" y="66" width="62" height="22" rx="0" ry="0"></rect><text x="231" y="81">LIKE</text></g></g><path d="M262 77a10 10 0 0 0 10 -10v-26a10 10 0 0 1 10 -10"></path></g><path d="M282 31h10"></path><g class="non-terminal"><path d="M292 31h0"></path><path d="M530 31h0"></path><rect x="292" y="20" width="238" height="22" rx="8" ry="8"></rect><text x="411" y="35">regular_expression_literal</text></g></g><path d="M530 31h20"></path></g><path d="M 550 31 h 20 m 0 -10 v 20"></path></g></svg>