<?xml version="1.0" standalone="no"?>
<?xml-stylesheet href="light.css" type="text/css"?>
<!DOCTYPE svg PUBLIC "-//W3C//DTD SVG 1.1//EN" "http://www.w3.org/Graphics/SVG/1.1/DTD/svg11.dtd">
<svg xmlns="http://www.w3.org/2000/svg" class="railroad-diagram" width="1100" height="478" viewBox="0 0 1100 478"><g transform="translate(.5 .5)"><path d="M 20 69 v 20 m 0 -10 h 20.5"></path><g><path d="M40 79h0"></path><path d="M1060 79h0"></path><path d="M40 79h20"></path><g><path d="M60 79h0"></path><path d="M1040 79h0"></path><g class="terminal"><path d="M60 79h0"></path><path d="M122 79h0"></path><rect x="60" y="68" width="62" height="22" rx="0" ry="0"></rect><text x="91" y="83">SHOW</text></g><path d="M122 79h10"></path><g><path d="M132 79h0"></path><path d="M322 79h0"></path><path d="M132 79h20"></path><g><path d="M152 79h20"></path><path d="M282 79h20"></path><g class="terminal"><path d="M172 79h0"></path><path d="M282 79h0"></path><rect x="172" y="68" width="110" height="22" rx="0" ry="0"></rect><text x="227" y="83">MODELTYPES</text></g></g><path d="M302 79h20"></path><path d="M132 79a10 10 0 0 1 10 10v26a10 10 0 0 0 10 10"></path><g><path d="M152 125h36"></path><path d="M266 125h36"></path><g class="terminal"><path d="M188 125h0"></path><path d="M266 125h0"></path><rect x="188" y="114" width="78" height="22" rx="0" ry="0"></rect><text x="227" y="129">MODELS</text></g></g><path d="M302 125a10 10 0 0 0 10 -10v-26a10 10 0 0 1 10 -10"></path><path d="M132 79a10 10 0 0 1 10 10v72a10 10 0 0 0 10 10"></path><g><path d="M152 171h0"></path><path d="M302 171h0"></path><g class="terminal"><path d="M152 171h0"></path><path d="M302 171h0"></path><rect x="152" y="160" width="150" height="22" rx="0" ry="0"></rect><text x="227" y="175">HYPERPARAMETERS</text></g></g><path d="M302 171a10 10 0 0 0 10 -10v-72a10 10 0 0 1 10 -10"></path><path d="M132 79a10 10 0 0 1 10 10v118a10 10 0 0 0 10 10"></path><g><path d="M152 217h28"></path><path d="M274 217h28"></path><g class="terminal"><path d="M180 217h0"></path><path d="M274 217h0"></path><rect x="180" y="206" width="94" height="22" rx="0" ry="0"></rect><text x="227" y="221">SYNOPSES</text></g></g><path d="M302 217a10 10 0 0 0 10 -10v-118a10 10 0 0 1 10 -10"></path><path d="M132 79a10 10 0 0 1 10 10v164a10 10 0 0 0 10 10"></path><g><path d="M152 263h32"></path><path d="M270 263h32"></path><g class="terminal"><path d="M184 263h0"></path><path d="M270 263h0"></path><rect x="184" y="252" width="86" height="22" rx="0" ry="0"></rect><text x="227" y="267">SCHEMAS</text></g></g><path d="M302 263a10 10 0 0 0 10 -10v-164a10 10 0 0 1 10 -10"></path><path d="M132 79a10 10 0 0 1 10 10v210a10 10 0 0 0 10 10"></path><g><path d="M152 309h36"></path><path d="M266 309h36"></path><g class="terminal"><path d="M188 309h0"></path><path d="M266 309h0"></path><rect x="188" y="298" width="78" height="22" rx="0" ry="0"></rect><text x="227" y="313">TABLES</text></g></g><path d="M302 309a10 10 0 0 0 10 -10v-210a10 10 0 0 1 10 -10"></path><path d="M132 79a10 10 0 0 1 10 10v256a10 10 0 0 0 10 10"></path><g><path d="M152 355h24"></path><path d="M278 355h24"></path><g class="terminal"><path d="M176 355h0"></path><path d="M278 355h0"></path><rect x="176" y="344" width="102" height="22" rx="0" ry="0"></rect><text x="227" y="359">QUERYLOGS</text></g></g><path d="M302 355a10 10 0 0 0 10 -10v-256a10 10 0 0 1 10 -10"></path><path d="M132 79a10 10 0 0 1 10 10v302a10 10 0 0 0 10 10"></path><g><path d="M152 401h40"></path><path d="M262 401h40"></path><g class="terminal"><path d="M192 401h0"></path><path d="M262 401h0"></path><rect x="192" y="390" width="70" height="22" rx="0" ry="0"></rect><text x="227" y="405">TASKS</text></g></g><path d="M302 401a10 10 0 0 0 10 -10v-302a10 10 0 0 1 10 -10"></path><path d="M132 79a10 10 0 0 1 10 10v348a10 10 0 0 0 10 10"></path><g><path d="M152 447h24"></path><path d="M278 447h24"></path><g class="terminal"><path d="M176 447h0"></path><path d="M278 447h0"></path><rect x="176" y="436" width="102" height="22" rx="0" ry="0"></rect><text x="227" y="451">TRAININGS</text></g></g><path d="M302 447a10 10 0 0 0 10 -10v-348a10 10 0 0 1 10 -10"></path></g><g><path d="M322 79h0"></path><path d="M1040 79h0"></path><path d="M322 79a10 10 0 0 0 10 -10v-39a10 10 0 0 1 10 -10"></path><g><path d="M342 20h678"></path></g><path d="M1020 20a10 10 0 0 1 10 10v39a10 10 0 0 0 10 10"></path><path d="M322 79h20"></path><g><path d="M342 79h0"></path><path d="M1020 79h0"></path><path d="M342 79h20"></path><g><path d="M362 79h0"></path><path d="M1000 79h0"></path><g class="terminal"><path d="M362 79h0"></path><path d="M432 79h0"></path><rect x="362" y="68" width="70" height="22" rx="0" ry="0"></rect><text x="397" y="83">WHERE</text></g><path d="M432 79h10"></path><path d="M442 79h10"></path><g class="non-terminal"><path d="M452 79h0"></path><path d="M634 79h0"></path><rect x="452" y="68" width="182" height="22" rx="8" ry="8"></rect><text x="543" y="83">showFilterCondition</text></g><path d="M634 79h10"></path><g><path d="M644 79h0"></path><path d="M1000 79h0"></path><path d="M644 79a10 10 0 0 0 10 -10v-15a10 10 0 0 1 10 -10"></path><g><path d="M664 44h316"></path></g><path d="M980 44a10 10 0 0 1 10 10v15a10 10 0 0 0 10 10"></path><path d="M644 79h20"></path><g><path d="M664 79h0"></path><path d="M980 79h0"></path><path d="M664 79h10"></path><g><path d="M674 79h0"></path><path d="M970 79h0"></path><path d="M674 79h20"></path><g><path d="M694 79h0"></path><path d="M950 79h0"></path><g class="terminal"><path d="M694 79h0"></path><path d="M748 79h0"></path><rect x="694" y="68" width="54" height="22" rx="0" ry="0"></rect><text x="721" y="83">AND</text></g><path d="M748 79h10"></path><path d="M758 79h10"></path><g class="non-terminal"><path d="M768 79h0"></path><path d="M950 79h0"></path><rect x="768" y="68" width="182" height="22" rx="8" ry="8"></rect><text x="859" y="83">showFilterCondition</text></g></g><path d="M950 79h20"></path></g><path d="M970 79h10"></path><path d="M674 79a10 10 0 0 0 -10 10v15a10 10 0 0 0 10 10"></path><g><path d="M674 114h296"></path></g><path d="M970 114a10 10 0 0 0 10 -10v-15a10 10 0 0 0 -10 -10"></path></g><path d="M980 79h20"></path></g></g><path d="M1000 79h20"></path></g><path d="M1020 79h20"></path></g></g><path d="M1040 79h20"></path></g><path d="M 1060 79 h 20 m 0 -10 v 20"></path></g></svg>