<?xml version="1.0" standalone="no"?>
<?xml-stylesheet href="light.css" type="text/css"?>
<!DOCTYPE svg PUBLIC "-//W3C//DTD SVG 1.1//EN" "http://www.w3.org/Graphics/SVG/1.1/DTD/svg11.dtd">
<svg xmlns="http://www.w3.org/2000/svg" class="railroad-diagram" width="382" height="522" viewBox="0 0 382 522"><g transform="translate(.5 .5)"><path d="M 20 21 v 20 m 0 -10 h 20.5"></path><g><path d="M40 31h0"></path><path d="M342 31h0"></path><path d="M40 31h20"></path><g><path d="M60 31h0"></path><path d="M322 31h0"></path><g class="terminal"><path d="M60 31h0"></path><path d="M122 31h0"></path><rect x="60" y="20" width="62" height="22" rx="0" ry="0"></rect><text x="91" y="35">SHOW</text></g><path d="M122 31h10"></path><g><path d="M132 31h0"></path><path d="M322 31h0"></path><path d="M132 31h20"></path><g><path d="M152 31h20"></path><path d="M282 31h20"></path><g class="terminal"><path d="M172 31h0"></path><path d="M282 31h0"></path><rect x="172" y="20" width="110" height="22" rx="0" ry="0"></rect><text x="227" y="35">MODELTYPES</text></g></g><path d="M302 31h20"></path><path d="M132 31a10 10 0 0 1 10 10v26a10 10 0 0 0 10 10"></path><g><path d="M152 77h36"></path><path d="M266 77h36"></path><g class="terminal"><path d="M188 77h0"></path><path d="M266 77h0"></path><rect x="188" y="66" width="78" height="22" rx="0" ry="0"></rect><text x="227" y="81">MODELS</text></g></g><path d="M302 77a10 10 0 0 0 10 -10v-26a10 10 0 0 1 10 -10"></path><path d="M132 31a10 10 0 0 1 10 10v72a10 10 0 0 0 10 10"></path><g><path d="M152 123h0"></path><path d="M302 123h0"></path><g class="terminal"><path d="M152 123h0"></path><path d="M302 123h0"></path><rect x="152" y="112" width="150" height="22" rx="0" ry="0"></rect><text x="227" y="127">HYPERPARAMETERS</text></g></g><path d="M302 123a10 10 0 0 0 10 -10v-72a10 10 0 0 1 10 -10"></path><path d="M132 31a10 10 0 0 1 10 10v118a10 10 0 0 0 10 10"></path><g><path d="M152 169h28"></path><path d="M274 169h28"></path><g class="terminal"><path d="M180 169h0"></path><path d="M274 169h0"></path><rect x="180" y="158" width="94" height="22" rx="0" ry="0"></rect><text x="227" y="173">SYNOPSES</text></g></g><path d="M302 169a10 10 0 0 0 10 -10v-118a10 10 0 0 1 10 -10"></path><path d="M132 31a10 10 0 0 1 10 10v164a10 10 0 0 0 10 10"></path><g><path d="M152 215h32"></path><path d="M270 215h32"></path><g class="terminal"><path d="M184 215h0"></path><path d="M270 215h0"></path><rect x="184" y="204" width="86" height="22" rx="0" ry="0"></rect><text x="227" y="219">SCHEMAS</text></g></g><path d="M302 215a10 10 0 0 0 10 -10v-164a10 10 0 0 1 10 -10"></path><path d="M132 31a10 10 0 0 1 10 10v210a10 10 0 0 0 10 10"></path><g><path d="M152 261h36"></path><path d="M266 261h36"></path><g class="terminal"><path d="M188 261h0"></path><path d="M266 261h0"></path><rect x="188" y="250" width="78" height="22" rx="0" ry="0"></rect><text x="227" y="265">TABLES</text></g></g><path d="M302 261a10 10 0 0 0 10 -10v-210a10 10 0 0 1 10 -10"></path><path d="M132 31a10 10 0 0 1 10 10v256a10 10 0 0 0 10 10"></path><g><path d="M152 307h32"></path><path d="M270 307h32"></path><g class="terminal"><path d="M184 307h0"></path><path d="M270 307h0"></path><rect x="184" y="296" width="86" height="22" rx="0" ry="0"></rect><text x="227" y="311">COLUMNS</text></g></g><path d="M302 307a10 10 0 0 0 10 -10v-256a10 10 0 0 1 10 -10"></path><path d="M132 31a10 10 0 0 1 10 10v302a10 10 0 0 0 10 10"></path><g><path d="M152 353h20"></path><path d="M282 353h20"></path><g class="terminal"><path d="M172 353h0"></path><path d="M282 353h0"></path><rect x="172" y="342" width="110" height="22" rx="0" ry="0"></rect><text x="227" y="357">PARTITIONS</text></g></g><path d="M302 353a10 10 0 0 0 10 -10v-302a10 10 0 0 1 10 -10"></path><path d="M132 31a10 10 0 0 1 10 10v348a10 10 0 0 0 10 10"></path><g><path d="M152 399h24"></path><path d="M278 399h24"></path><g class="terminal"><path d="M176 399h0"></path><path d="M278 399h0"></path><rect x="176" y="388" width="102" height="22" rx="0" ry="0"></rect><text x="227" y="403">QUERYLOGS</text></g></g><path d="M302 399a10 10 0 0 0 10 -10v-348a10 10 0 0 1 10 -10"></path><path d="M132 31a10 10 0 0 1 10 10v394a10 10 0 0 0 10 10"></path><g><path d="M152 445h40"></path><path d="M262 445h40"></path><g class="terminal"><path d="M192 445h0"></path><path d="M262 445h0"></path><rect x="192" y="434" width="70" height="22" rx="0" ry="0"></rect><text x="227" y="449">TASKS</text></g></g><path d="M302 445a10 10 0 0 0 10 -10v-394a10 10 0 0 1 10 -10"></path><path d="M132 31a10 10 0 0 1 10 10v440a10 10 0 0 0 10 10"></path><g><path d="M152 491h24"></path><path d="M278 491h24"></path><g class="terminal"><path d="M176 491h0"></path><path d="M278 491h0"></path><rect x="176" y="480" width="102" height="22" rx="0" ry="0"></rect><text x="227" y="495">TRAININGS</text></g></g><path d="M302 491a10 10 0 0 0 10 -10v-440a10 10 0 0 1 10 -10"></path></g></g><path d="M322 31h20"></path></g><path d="M 342 31 h 20 m 0 -10 v 20"></path></g></svg>