<?xml version="1.0" standalone="no"?>
<?xml-stylesheet href="light.css" type="text/css"?>
<!DOCTYPE svg PUBLIC "-//W3C//DTD SVG 1.1//EN" "http://www.w3.org/Graphics/SVG/1.1/DTD/svg11.dtd">
<svg xmlns="http://www.w3.org/2000/svg" class="railroad-diagram" width="588" height="110" viewBox="0 0 588 110"><g transform="translate(.5 .5)"><path d="M 20 45 v 20 m 0 -10 h 20.5"></path><g><path d="M40 55h0"></path><path d="M548 55h0"></path><path d="M40 55h20"></path><g><path d="M60 55h0"></path><path d="M528 55h0"></path><g class="non-terminal"><path d="M60 55h0"></path><path d="M202 55h0"></path><rect x="60" y="44" width="142" height="22" rx="8" ry="8"></rect><text x="131" y="59">tableReference</text></g><path d="M202 55h10"></path><g><path d="M212 55h0"></path><path d="M528 55h0"></path><path d="M212 55a10 10 0 0 0 10 -10v-15a10 10 0 0 1 10 -10"></path><g><path d="M232 20h276"></path></g><path d="M508 20a10 10 0 0 1 10 10v15a10 10 0 0 0 10 10"></path><path d="M212 55h20"></path><g><path d="M232 55h0"></path><path d="M508 55h0"></path><path d="M232 55h10"></path><g><path d="M242 55h0"></path><path d="M498 55h0"></path><path d="M242 55h20"></path><g><path d="M262 55h0"></path><path d="M478 55h0"></path><g class="terminal"><path d="M262 55h0"></path><path d="M316 55h0"></path><rect x="262" y="44" width="54" height="22" rx="0" ry="0"></rect><text x="289" y="59">','</text></g><path d="M316 55h10"></path><path d="M326 55h10"></path><g class="non-terminal"><path d="M336 55h0"></path><path d="M478 55h0"></path><rect x="336" y="44" width="142" height="22" rx="8" ry="8"></rect><text x="407" y="59">tableReference</text></g></g><path d="M478 55h20"></path></g><path d="M498 55h10"></path><path d="M242 55a10 10 0 0 0 -10 10v15a10 10 0 0 0 10 10"></path><g><path d="M242 90h256"></path></g><path d="M498 90a10 10 0 0 0 10 -10v-15a10 10 0 0 0 -10 -10"></path></g><path d="M508 55h20"></path></g></g><path d="M528 55h20"></path></g><path d="M 548 55 h 20 m 0 -10 v 20"></path></g></svg>