<?xml version="1.0" standalone="no"?>
<?xml-stylesheet href="light.css" type="text/css"?>
<!DOCTYPE svg PUBLIC "-//W3C//DTD SVG 1.1//EN" "http://www.w3.org/Graphics/SVG/1.1/DTD/svg11.dtd">
<svg xmlns="http://www.w3.org/2000/svg" class="railroad-diagram" width="1150" height="158" viewBox="0 0 1150 158"><g transform="translate(.5 .5)"><path d="M 20 93 v 20 m 0 -10 h 20.5"></path><g><path d="M40 103h0"></path><path d="M1110 103h0"></path><path d="M40 103h20"></path><g><path d="M60 103h0"></path><path d="M1090 103h0"></path><g class="non-terminal"><path d="M60 103h0"></path><path d="M186 103h0"></path><rect x="60" y="92" width="126" height="22" rx="8" ry="8"></rect><text x="123" y="107">tablePrimary</text></g><path d="M186 103h10"></path><g><path d="M196 103h0"></path><path d="M1090 103h0"></path><path d="M196 103a10 10 0 0 0 10 -10v-63a10 10 0 0 1 10 -10"></path><g><path d="M216 20h854"></path></g><path d="M1070 20a10 10 0 0 1 10 10v63a10 10 0 0 0 10 10"></path><path d="M196 103h20"></path><g><path d="M216 103h0"></path><path d="M1070 103h0"></path><path d="M216 103h20"></path><g><path d="M236 103h0"></path><path d="M1050 103h0"></path><g><path d="M236 103h0"></path><path d="M322 103h0"></path><path d="M236 103h20"></path><g><path d="M256 103h0"></path><path d="M302 103h0"></path><g class="terminal"><path d="M256 103h0"></path><path d="M302 103h0"></path><rect x="256" y="92" width="46" height="22" rx="0" ry="0"></rect><text x="279" y="107">AS</text></g></g><path d="M302 103h20"></path></g><path d="M322 103h10"></path><g class="non-terminal"><path d="M332 103h0"></path><path d="M402 103h0"></path><rect x="332" y="92" width="70" height="22" rx="8" ry="8"></rect><text x="367" y="107">alias</text></g><path d="M402 103h10"></path><g><path d="M412 103h0"></path><path d="M1050 103h0"></path><path d="M412 103a10 10 0 0 0 10 -10v-39a10 10 0 0 1 10 -10"></path><g><path d="M432 44h598"></path></g><path d="M1030 44a10 10 0 0 1 10 10v39a10 10 0 0 0 10 10"></path><path d="M412 103h20"></path><g><path d="M432 103h0"></path><path d="M1030 103h0"></path><path d="M432 103h20"></path><g><path d="M452 103h0"></path><path d="M1010 103h0"></path><g class="terminal"><path d="M452 103h0"></path><path d="M506 103h0"></path><rect x="452" y="92" width="54" height="22" rx="0" ry="0"></rect><text x="479" y="107">'('</text></g><path d="M506 103h10"></path><path d="M516 103h10"></path><g class="non-terminal"><path d="M526 103h0"></path><path d="M644 103h0"></path><rect x="526" y="92" width="118" height="22" rx="8" ry="8"></rect><text x="585" y="107">columnAlias</text></g><path d="M644 103h10"></path><g><path d="M654 103h0"></path><path d="M946 103h0"></path><path d="M654 103a10 10 0 0 0 10 -10v-15a10 10 0 0 1 10 -10"></path><g><path d="M674 68h252"></path></g><path d="M926 68a10 10 0 0 1 10 10v15a10 10 0 0 0 10 10"></path><path d="M654 103h20"></path><g><path d="M674 103h0"></path><path d="M926 103h0"></path><path d="M674 103h10"></path><g><path d="M684 103h0"></path><path d="M916 103h0"></path><path d="M684 103h20"></path><g><path d="M704 103h0"></path><path d="M896 103h0"></path><g class="terminal"><path d="M704 103h0"></path><path d="M758 103h0"></path><rect x="704" y="92" width="54" height="22" rx="0" ry="0"></rect><text x="731" y="107">','</text></g><path d="M758 103h10"></path><path d="M768 103h10"></path><g class="non-terminal"><path d="M778 103h0"></path><path d="M896 103h0"></path><rect x="778" y="92" width="118" height="22" rx="8" ry="8"></rect><text x="837" y="107">columnAlias</text></g></g><path d="M896 103h20"></path></g><path d="M916 103h10"></path><path d="M684 103a10 10 0 0 0 -10 10v15a10 10 0 0 0 10 10"></path><g><path d="M684 138h232"></path></g><path d="M916 138a10 10 0 0 0 10 -10v-15a10 10 0 0 0 -10 -10"></path></g><path d="M926 103h20"></path></g><path d="M946 103h10"></path><g class="terminal"><path d="M956 103h0"></path><path d="M1010 103h0"></path><rect x="956" y="92" width="54" height="22" rx="0" ry="0"></rect><text x="983" y="107">')'</text></g></g><path d="M1010 103h20"></path></g><path d="M1030 103h20"></path></g></g><path d="M1050 103h20"></path></g><path d="M1070 103h20"></path></g></g><path d="M1090 103h20"></path></g><path d="M 1110 103 h 20 m 0 -10 v 20"></path></g></svg>