<?xml version="1.0" standalone="no"?>
<?xml-stylesheet href="light.css" type="text/css"?>
<!DOCTYPE svg PUBLIC "-//W3C//DTD SVG 1.1//EN" "http://www.w3.org/Graphics/SVG/1.1/DTD/svg11.dtd">
<svg xmlns="http://www.w3.org/2000/svg" class="railroad-diagram" width="908" height="132" viewBox="0 0 908 132"><g transform="translate(.5 .5)"><path d="M 20 45 v 20 m 0 -10 h 20.5"></path><g><path d="M40 55h0"></path><path d="M868 55h0"></path><path d="M40 55h20"></path><g><path d="M60 55h0"></path><path d="M848 55h0"></path><g><path d="M60 55h0"></path><path d="M162 55h0"></path><path d="M60 55h20"></path><g><path d="M80 55h0"></path><path d="M142 55h0"></path><g class="terminal"><path d="M80 55h0"></path><path d="M142 55h0"></path><rect x="80" y="44" width="62" height="22" rx="0" ry="0"></rect><text x="111" y="59">FROM</text></g></g><path d="M142 55h20"></path><path d="M60 55a10 10 0 0 1 10 10v26a10 10 0 0 0 10 10"></path><g><path d="M80 101h8"></path><path d="M134 101h8"></path><g class="terminal"><path d="M88 101h0"></path><path d="M134 101h0"></path><rect x="88" y="90" width="46" height="22" rx="0" ry="0"></rect><text x="111" y="105">ON</text></g></g><path d="M142 101a10 10 0 0 0 10 -10v-26a10 10 0 0 1 10 -10"></path></g><g><path d="M162 55h0"></path><path d="M426 55h0"></path><path d="M162 55a10 10 0 0 0 10 -10v-15a10 10 0 0 1 10 -10"></path><g><path d="M182 20h224"></path></g><path d="M406 20a10 10 0 0 1 10 10v15a10 10 0 0 0 10 10"></path><path d="M162 55h20"></path><g><path d="M182 55h0"></path><path d="M406 55h0"></path><path d="M182 55h20"></path><g><path d="M202 55h0"></path><path d="M386 55h0"></path><g class="non-terminal"><path d="M202 55h0"></path><path d="M312 55h0"></path><rect x="202" y="44" width="110" height="22" rx="8" ry="8"></rect><text x="257" y="59">schemaName</text></g><path d="M312 55h10"></path><path d="M322 55h10"></path><g class="terminal"><path d="M332 55h0"></path><path d="M386 55h0"></path><rect x="332" y="44" width="54" height="22" rx="0" ry="0"></rect><text x="359" y="59">'.'</text></g></g><path d="M386 55h20"></path></g><path d="M406 55h20"></path></g><path d="M426 55h10"></path><g class="non-terminal"><path d="M436 55h0"></path><path d="M538 55h0"></path><rect x="436" y="44" width="102" height="22" rx="8" ry="8"></rect><text x="487" y="59">tableName</text></g><path d="M538 55h10"></path><path d="M548 55h10"></path><g class="terminal"><path d="M558 55h0"></path><path d="M612 55h0"></path><rect x="558" y="44" width="54" height="22" rx="0" ry="0"></rect><text x="585" y="59">'('</text></g><path d="M612 55h10"></path><path d="M622 55h10"></path><g class="non-terminal"><path d="M632 55h0"></path><path d="M774 55h0"></path><rect x="632" y="44" width="142" height="22" rx="8" ry="8"></rect><text x="703" y="59">columnNameList</text></g><path d="M774 55h10"></path><path d="M784 55h10"></path><g class="terminal"><path d="M794 55h0"></path><path d="M848 55h0"></path><rect x="794" y="44" width="54" height="22" rx="0" ry="0"></rect><text x="821" y="59">')'</text></g></g><path d="M848 55h20"></path></g><path d="M 868 55 h 20 m 0 -10 v 20"></path></g></svg>