<?xml version="1.0" standalone="no"?>
<?xml-stylesheet href="light.css" type="text/css"?>
<!DOCTYPE svg PUBLIC "-//W3C//DTD SVG 1.1//EN" "http://www.w3.org/Graphics/SVG/1.1/DTD/svg11.dtd">
<svg xmlns="http://www.w3.org/2000/svg" class="railroad-diagram" width="842" height="86" viewBox="0 0 842 86"><g transform="translate(.5 .5)"><path d="M 20 45 v 20 m 0 -10 h 20.5"></path><g><path d="M40 55h0"></path><path d="M802 55h0"></path><path d="M40 55h20"></path><g><path d="M60 55h0"></path><path d="M782 55h0"></path><g><path d="M60 55h0"></path><path d="M322 55h0"></path><path d="M60 55a10 10 0 0 0 10 -10v-15a10 10 0 0 1 10 -10"></path><g><path d="M80 20h222"></path></g><path d="M302 20a10 10 0 0 1 10 10v15a10 10 0 0 0 10 10"></path><path d="M60 55h20"></path><g class="non-terminal"><path d="M80 55h0"></path><path d="M302 55h0"></path><rect x="80" y="44" width="222" height="22" rx="8" ry="8"></rect><text x="191" y="59">trainDataConditionClause</text></g><path d="M302 55h20"></path></g><g><path d="M322 55h0"></path><path d="M528 55h0"></path><path d="M322 55a10 10 0 0 0 10 -10v-15a10 10 0 0 1 10 -10"></path><g><path d="M342 20h166"></path></g><path d="M508 20a10 10 0 0 1 10 10v15a10 10 0 0 0 10 10"></path><path d="M322 55h20"></path><g class="non-terminal"><path d="M342 55h0"></path><path d="M508 55h0"></path><rect x="342" y="44" width="166" height="22" rx="8" ry="8"></rect><text x="425" y="59">trainSampleClause</text></g><path d="M508 55h20"></path></g><g><path d="M528 55h0"></path><path d="M782 55h0"></path><path d="M528 55a10 10 0 0 0 10 -10v-15a10 10 0 0 1 10 -10"></path><g><path d="M548 20h214"></path></g><path d="M762 20a10 10 0 0 1 10 10v15a10 10 0 0 0 10 10"></path><path d="M528 55h20"></path><g class="non-terminal"><path d="M548 55h0"></path><path d="M762 55h0"></path><rect x="548" y="44" width="214" height="22" rx="8" ry="8"></rect><text x="655" y="59">trainModelOptionsClause</text></g><path d="M762 55h20"></path></g></g><path d="M782 55h20"></path></g><path d="M 802 55 h 20 m 0 -10 v 20"></path></g></svg>