<?xml version="1.0" standalone="no"?>
<?xml-stylesheet href="light.css" type="text/css"?>
<!DOCTYPE svg PUBLIC "-//W3C//DTD SVG 1.1//EN" "http://www.w3.org/Graphics/SVG/1.1/DTD/svg11.dtd">
<svg xmlns="http://www.w3.org/2000/svg" class="railroad-diagram" width="862" height="86" viewBox="0 0 862 86"><g transform="translate(.5 .5)"><g><path d="M40 55h0"></path><path d="M822 55h0"></path><path d="M40 55h20"></path><g><path d="M60 55h0"></path><path d="M802 55h0"></path><g class="terminal"><path d="M60 55h0"></path><path d="M106 55h0"></path><rect x="60" y="44" width="46" height="22" rx="0" ry="0"></rect><text x="83" y="59">ON</text></g><path d="M106 55h10"></path><g><path d="M116 55h0"></path><path d="M380 55h0"></path><path d="M116 55a10 10 0 0 0 10 -10v-15a10 10 0 0 1 10 -10"></path><g><path d="M136 20h224"></path></g><path d="M360 20a10 10 0 0 1 10 10v15a10 10 0 0 0 10 10"></path><path d="M116 55h20"></path><g><path d="M136 55h0"></path><path d="M360 55h0"></path><path d="M136 55h20"></path><g><path d="M156 55h0"></path><path d="M340 55h0"></path><g class="non-terminal"><path d="M156 55h0"></path><path d="M266 55h0"></path><rect x="156" y="44" width="110" height="22" rx="8" ry="8"></rect><text x="211" y="59">schemaName</text></g><path d="M266 55h10"></path><path d="M276 55h10"></path><g class="terminal"><path d="M286 55h0"></path><path d="M340 55h0"></path><rect x="286" y="44" width="54" height="22" rx="0" ry="0"></rect><text x="313" y="59">'.'</text></g></g><path d="M340 55h20"></path></g><path d="M360 55h20"></path></g><path d="M380 55h10"></path><g class="non-terminal"><path d="M390 55h0"></path><path d="M492 55h0"></path><rect x="390" y="44" width="102" height="22" rx="8" ry="8"></rect><text x="441" y="59">tableName</text></g><path d="M492 55h10"></path><path d="M502 55h10"></path><g class="terminal"><path d="M512 55h0"></path><path d="M566 55h0"></path><rect x="512" y="44" width="54" height="22" rx="0" ry="0"></rect><text x="539" y="59">'('</text></g><path d="M566 55h10"></path><path d="M576 55h10"></path><g class="non-terminal"><path d="M586 55h0"></path><path d="M728 55h0"></path><rect x="586" y="44" width="142" height="22" rx="8" ry="8"></rect><text x="657" y="59">columnNameList</text></g><path d="M728 55h10"></path><path d="M738 55h10"></path><g class="terminal"><path d="M748 55h0"></path><path d="M802 55h0"></path><rect x="748" y="44" width="54" height="22" rx="0" ry="0"></rect><text x="775" y="59">')'</text></g></g><path d="M802 55h20"></path></g></g></svg>
