<?xml version="1.0" standalone="no"?>
<?xml-stylesheet href="light.css" type="text/css"?>
<!DOCTYPE svg PUBLIC "-//W3C//DTD SVG 1.1//EN" "http://www.w3.org/Graphics/SVG/1.1/DTD/svg11.dtd">
<svg xmlns="http://www.w3.org/2000/svg" class="railroad-diagram" width="756" height="86" viewBox="0 0 756 86"><g transform="translate(.5 .5)"><path d="M 20 45 v 20 m 0 -10 h 20.5"></path><g><path d="M40 55h0"></path><path d="M716 55h0"></path><path d="M40 55h20"></path><g><path d="M60 55h0"></path><path d="M696 55h0"></path><g class="non-terminal"><path d="M60 55h0"></path><path d="M226 55h0"></path><rect x="60" y="44" width="166" height="22" rx="8" ry="8"></rect><text x="143" y="59">trainTargetClause</text></g><path d="M226 55h10"></path><g><path d="M236 55h0"></path><path d="M442 55h0"></path><path d="M236 55a10 10 0 0 0 10 -10v-15a10 10 0 0 1 10 -10"></path><g><path d="M256 20h166"></path></g><path d="M422 20a10 10 0 0 1 10 10v15a10 10 0 0 0 10 10"></path><path d="M236 55h20"></path><g class="non-terminal"><path d="M256 55h0"></path><path d="M422 55h0"></path><rect x="256" y="44" width="166" height="22" rx="8" ry="8"></rect><text x="339" y="59">trainSampleClause</text></g><path d="M422 55h20"></path></g><g><path d="M442 55h0"></path><path d="M696 55h0"></path><path d="M442 55a10 10 0 0 0 10 -10v-15a10 10 0 0 1 10 -10"></path><g><path d="M462 20h214"></path></g><path d="M676 20a10 10 0 0 1 10 10v15a10 10 0 0 0 10 10"></path><path d="M442 55h20"></path><g class="non-terminal"><path d="M462 55h0"></path><path d="M676 55h0"></path><rect x="462" y="44" width="214" height="22" rx="8" ry="8"></rect><text x="569" y="59">trainModelOptionsClause</text></g><path d="M676 55h20"></path></g></g><path d="M696 55h20"></path></g><path d="M 716 55 h 20 m 0 -10 v 20"></path></g></svg>