<?xml version="1.0" standalone="no"?>
<?xml-stylesheet href="light.css" type="text/css"?>
<!DOCTYPE svg PUBLIC "-//W3C//DTD SVG 1.1//EN" "http://www.w3.org/Graphics/SVG/1.1/DTD/svg11.dtd">
<svg xmlns="http://www.w3.org/2000/svg" class="railroad-diagram" width="678" height="62" viewBox="0 0 678 62"><g transform="translate(.5 .5)"><path d="M 20 21 v 20 m 0 -10 h 20.5"></path><g><path d="M40 31h0"></path><path d="M638 31h0"></path><path d="M40 31h20"></path><g><path d="M60 31h0"></path><path d="M618 31h0"></path><g class="terminal"><path d="M60 31h0"></path><path d="M130 31h0"></path><rect x="60" y="20" width="70" height="22" rx="0" ry="0"></rect><text x="95" y="35">TRAIN</text></g><path d="M130 31h10"></path><path d="M140 31h10"></path><g class="terminal"><path d="M150 31h0"></path><path d="M220 31h0"></path><rect x="150" y="20" width="70" height="22" rx="0" ry="0"></rect><text x="185" y="35">MODEL</text></g><path d="M220 31h10"></path><path d="M230 31h10"></path><g class="non-terminal"><path d="M240 31h0"></path><path d="M342 31h0"></path><rect x="240" y="20" width="102" height="22" rx="8" ry="8"></rect><text x="291" y="35">modelName</text></g><path d="M342 31h10"></path><path d="M352 31h10"></path><g class="terminal"><path d="M362 31h0"></path><path d="M464 31h0"></path><rect x="362" y="20" width="102" height="22" rx="0" ry="0"></rect><text x="413" y="35">MODELTYPE</text></g><path d="M464 31h10"></path><path d="M474 31h10"></path><g class="non-terminal"><path d="M484 31h0"></path><path d="M618 31h0"></path><rect x="484" y="20" width="134" height="22" rx="8" ry="8"></rect><text x="551" y="35">modeltypeName</text></g></g><path d="M618 31h20"></path></g></g></svg>
