<?xml version="1.0" standalone="no"?>
<?xml-stylesheet href="light.css" type="text/css"?>
<!DOCTYPE svg PUBLIC "-//W3C//DTD SVG 1.1//EN" "http://www.w3.org/Graphics/SVG/1.1/DTD/svg11.dtd">
<svg xmlns="http://www.w3.org/2000/svg" class="railroad-diagram" width="654" height="110" viewBox="0 0 654 110"><g transform="translate(.5 .5)"><path d="M 20 45 v 20 m 0 -10 h 20.5"></path><g><path d="M40 55h0"></path><path d="M614 55h0"></path><path d="M40 55h20"></path><g><path d="M60 55h0"></path><path d="M594 55h0"></path><g class="terminal"><path d="M60 55h0"></path><path d="M106 55h0"></path><rect x="60" y="44" width="46" height="22" rx="0" ry="0"></rect><text x="83" y="59">ON</text></g><path d="M106 55h10"></path><path d="M116 55h10"></path><g class="non-terminal"><path d="M126 55h0"></path><path d="M268 55h0"></path><rect x="126" y="44" width="142" height="22" rx="8" ry="8"></rect><text x="197" y="59">tableCondition</text></g><path d="M268 55h10"></path><g><path d="M278 55h0"></path><path d="M594 55h0"></path><path d="M278 55a10 10 0 0 0 10 -10v-15a10 10 0 0 1 10 -10"></path><g><path d="M298 20h276"></path></g><path d="M574 20a10 10 0 0 1 10 10v15a10 10 0 0 0 10 10"></path><path d="M278 55h20"></path><g><path d="M298 55h0"></path><path d="M574 55h0"></path><path d="M298 55h10"></path><g><path d="M308 55h0"></path><path d="M564 55h0"></path><path d="M308 55h20"></path><g><path d="M328 55h0"></path><path d="M544 55h0"></path><g class="terminal"><path d="M328 55h0"></path><path d="M382 55h0"></path><rect x="328" y="44" width="54" height="22" rx="0" ry="0"></rect><text x="355" y="59">AND</text></g><path d="M382 55h10"></path><path d="M392 55h10"></path><g class="non-terminal"><path d="M402 55h0"></path><path d="M544 55h0"></path><rect x="402" y="44" width="142" height="22" rx="8" ry="8"></rect><text x="473" y="59">tableCondition</text></g></g><path d="M544 55h20"></path></g><path d="M564 55h10"></path><path d="M308 55a10 10 0 0 0 -10 10v15a10 10 0 0 0 10 10"></path><g><path d="M308 90h256"></path></g><path d="M564 90a10 10 0 0 0 10 -10v-15a10 10 0 0 0 -10 -10"></path></g><path d="M574 55h20"></path></g></g><path d="M594 55h20"></path></g><path d="M 614 55 h 20 m 0 -10 v 20"></path></g></svg>