<?xml version="1.0" standalone="no"?>
<?xml-stylesheet href="light.css" type="text/css"?>
<!DOCTYPE svg PUBLIC "-//W3C//DTD SVG 1.1//EN" "http://www.w3.org/Graphics/SVG/1.1/DTD/svg11.dtd">
<svg xmlns="http://www.w3.org/2000/svg" class="railroad-diagram" width="918" height="178" viewBox="0 0 918 178"><g transform="translate(.5 .5)"><path d="M 20 21 v 20 m 0 -10 h 20.5"></path><g><path d="M40 31h0"></path><path d="M878 31h0"></path><path d="M40 31h20"></path><g><path d="M60 31h0"></path><path d="M858 31h0"></path><g class="terminal"><path d="M60 31h0"></path><path d="M130 31h0"></path><rect x="60" y="20" width="70" height="22" rx="0" ry="0"></rect><text x="95" y="35">TRAIN</text></g><path d="M130 31h10"></path><path d="M140 31h10"></path><g class="terminal"><path d="M150 31h0"></path><path d="M220 31h0"></path><rect x="150" y="20" width="70" height="22" rx="0" ry="0"></rect><text x="185" y="35">MODEL</text></g><path d="M220 31h10"></path><path d="M230 31h10"></path><g class="non-terminal"><path d="M240 31h0"></path><path d="M342 31h0"></path><rect x="240" y="20" width="102" height="22" rx="8" ry="8"></rect><text x="291" y="35">modelName</text></g><path d="M342 31h10"></path><g><path d="M352 31h0"></path><path d="M858 31h0"></path><path d="M352 31h20"></path><g><path d="M372 31h0"></path><path d="M838 31h0"></path><g><path d="M372 31h0"></path><path d="M838 31h0"></path><path d="M372 31h20"></path><g><path d="M392 31h0"></path><path d="M818 31h0"></path><g class="terminal"><path d="M392 31h0"></path><path d="M494 31h0"></path><rect x="392" y="20" width="102" height="22" rx="0" ry="0"></rect><text x="443" y="35">MODELTYPE</text></g><path d="M494 31h10"></path><path d="M504 31h10"></path><g class="non-terminal"><path d="M514 31h0"></path><path d="M648 31h0"></path><rect x="514" y="20" width="134" height="22" rx="8" ry="8"></rect><text x="581" y="35">modeltypeName</text></g><path d="M648 31h10"></path><path d="M658 31h10"></path><g class="non-terminal"><path d="M668 31h0"></path><path d="M818 31h0"></path><rect x="668" y="20" width="150" height="22" rx="8" ry="8"></rect><text x="743" y="35">trainDataClause</text></g></g><path d="M818 31h20"></path></g></g><path d="M838 31h20"></path><path d="M352 31a10 10 0 0 1 10 10v50a10 10 0 0 0 10 10"></path><g><path d="M372 101h5"></path><path d="M833 101h5"></path><g><path d="M377 101h0"></path><path d="M833 101h0"></path><path d="M377 101h20"></path><g><path d="M397 101h0"></path><path d="M813 101h0"></path><g class="terminal"><path d="M397 101h0"></path><path d="M475 101h0"></path><rect x="397" y="90" width="78" height="22" rx="0" ry="0"></rect><text x="436" y="105">UPDATE</text></g><path d="M475 101h10"></path><path d="M485 101h10"></path><g class="non-terminal"><path d="M495 101h0"></path><path d="M613 101h0"></path><rect x="495" y="90" width="118" height="22" rx="8" ry="8"></rect><text x="554" y="105">exModelName</text></g><path d="M613 101h10"></path><g><path d="M623 101h0"></path><path d="M813 101h0"></path><path d="M623 101a10 10 0 0 0 10 -10v-15a10 10 0 0 1 10 -10"></path><g><path d="M643 66h150"></path></g><path d="M793 66a10 10 0 0 1 10 10v15a10 10 0 0 0 10 10"></path><path d="M623 101h20"></path><g class="non-terminal"><path d="M643 101h0"></path><path d="M793 101h0"></path><rect x="643" y="90" width="150" height="22" rx="8" ry="8"></rect><text x="718" y="105">trainDataClause</text></g><path d="M793 101h20"></path></g></g><path d="M813 101h20"></path></g></g><path d="M838 101a10 10 0 0 0 10 -10v-50a10 10 0 0 1 10 -10"></path><path d="M352 31a10 10 0 0 1 10 10v96a10 10 0 0 0 10 10"></path><g><path d="M372 147h113"></path><path d="M725 147h113"></path><g><path d="M485 147h0"></path><path d="M725 147h0"></path><path d="M485 147h20"></path><g><path d="M505 147h0"></path><path d="M705 147h0"></path><g class="terminal"><path d="M505 147h0"></path><path d="M567 147h0"></path><rect x="505" y="136" width="62" height="22" rx="0" ry="0"></rect><text x="536" y="151">LIKE</text></g><path d="M567 147h10"></path><path d="M577 147h10"></path><g class="non-terminal"><path d="M587 147h0"></path><path d="M705 147h0"></path><rect x="587" y="136" width="118" height="22" rx="8" ry="8"></rect><text x="646" y="151">exModelName</text></g></g><path d="M705 147h20"></path></g></g><path d="M838 147a10 10 0 0 0 10 -10v-96a10 10 0 0 1 10 -10"></path></g></g><path d="M858 31h20"></path></g><path d="M 878 31 h 20 m 0 -10 v 20"></path></g></svg>