<?xml version="1.0" standalone="no"?>
<?xml-stylesheet href="light.css" type="text/css"?>
<!DOCTYPE svg PUBLIC "-//W3C//DTD SVG 1.1//EN" "http://www.w3.org/Graphics/SVG/1.1/DTD/svg11.dtd">
<svg xmlns="http://www.w3.org/2000/svg" class="railroad-diagram" width="978" height="134" viewBox="0 0 978 134"><g transform="translate(.5 .5)"><path d="M 20 69 v 20 m 0 -10 h 20.5"></path><g><path d="M40 79h0"></path><path d="M938 79h0"></path><path d="M40 79h20"></path><g><path d="M60 79h0"></path><path d="M918 79h0"></path><g><path d="M60 79h0"></path><path d="M918 79h0"></path><path d="M60 79a10 10 0 0 0 10 -10v-39a10 10 0 0 1 10 -10"></path><g><path d="M80 20h818"></path></g><path d="M898 20a10 10 0 0 1 10 10v39a10 10 0 0 0 10 10"></path><path d="M60 79h20"></path><g><path d="M80 79h0"></path><path d="M898 79h0"></path><path d="M80 79h10"></path><g><path d="M90 79h0"></path><path d="M888 79h0"></path><path d="M90 79h20"></path><g><path d="M110 79h0"></path><path d="M868 79h0"></path><g class="terminal"><path d="M110 79h0"></path><path d="M172 79h0"></path><rect x="110" y="68" width="62" height="22" rx="0" ry="0"></rect><text x="141" y="83">JOIN</text></g><path d="M172 79h10"></path><g><path d="M182 79h0"></path><path d="M446 79h0"></path><path d="M182 79a10 10 0 0 0 10 -10v-15a10 10 0 0 1 10 -10"></path><g><path d="M202 44h224"></path></g><path d="M426 44a10 10 0 0 1 10 10v15a10 10 0 0 0 10 10"></path><path d="M182 79h20"></path><g><path d="M202 79h0"></path><path d="M426 79h0"></path><path d="M202 79h20"></path><g><path d="M222 79h0"></path><path d="M406 79h0"></path><g class="non-terminal"><path d="M222 79h0"></path><path d="M332 79h0"></path><rect x="222" y="68" width="110" height="22" rx="8" ry="8"></rect><text x="277" y="83">schemaName</text></g><path d="M332 79h10"></path><path d="M342 79h10"></path><g class="terminal"><path d="M352 79h0"></path><path d="M406 79h0"></path><rect x="352" y="68" width="54" height="22" rx="0" ry="0"></rect><text x="379" y="83">'.'</text></g></g><path d="M406 79h20"></path></g><path d="M426 79h20"></path></g><path d="M446 79h10"></path><g class="non-terminal"><path d="M456 79h0"></path><path d="M558 79h0"></path><rect x="456" y="68" width="102" height="22" rx="8" ry="8"></rect><text x="507" y="83">tableName</text></g><path d="M558 79h10"></path><path d="M568 79h10"></path><g class="terminal"><path d="M578 79h0"></path><path d="M632 79h0"></path><rect x="578" y="68" width="54" height="22" rx="0" ry="0"></rect><text x="605" y="83">'('</text></g><path d="M632 79h10"></path><path d="M642 79h10"></path><g class="non-terminal"><path d="M652 79h0"></path><path d="M794 79h0"></path><rect x="652" y="68" width="142" height="22" rx="8" ry="8"></rect><text x="723" y="83">columnNameList</text></g><path d="M794 79h10"></path><path d="M804 79h10"></path><g class="terminal"><path d="M814 79h0"></path><path d="M868 79h0"></path><rect x="814" y="68" width="54" height="22" rx="0" ry="0"></rect><text x="841" y="83">')'</text></g></g><path d="M868 79h20"></path></g><path d="M888 79h10"></path><path d="M90 79a10 10 0 0 0 -10 10v15a10 10 0 0 0 10 10"></path><g><path d="M90 114h798"></path></g><path d="M888 114a10 10 0 0 0 10 -10v-15a10 10 0 0 0 -10 -10"></path></g><path d="M898 79h20"></path></g></g><path d="M918 79h20"></path></g><path d="M 938 79 h 20 m 0 -10 v 20"></path></g></svg>