<?xml version="1.0" standalone="no"?>
<?xml-stylesheet href="light.css" type="text/css"?>
<!DOCTYPE svg PUBLIC "-//W3C//DTD SVG 1.1//EN" "http://www.w3.org/Graphics/SVG/1.1/DTD/svg11.dtd">
<svg xmlns="http://www.w3.org/2000/svg" class="railroad-diagram" width="832" height="110" viewBox="0 0 832 110"><g transform="translate(.5 .5)"><g><path d="M40 55h0"></path><path d="M792 55h0"></path><path d="M40 55h20"></path><g><path d="M60 55h0"></path><path d="M772 55h0"></path><g class="terminal"><path d="M60 55h0"></path><path d="M146 55h0"></path><rect x="60" y="44" width="86" height="22" rx="0" ry="0"></rect><text x="103" y="59">OPTIONS</text></g><path d="M146 55h10"></path><path d="M156 55h10"></path><g class="terminal"><path d="M166 55h0"></path><path d="M220 55h0"></path><rect x="166" y="44" width="54" height="22" rx="0" ry="0"></rect><text x="193" y="59">'('</text></g><path d="M220 55h10"></path><path d="M230 55h10"></path><g class="non-terminal"><path d="M240 55h0"></path><path d="M382 55h0"></path><rect x="240" y="44" width="142" height="22" rx="8" ry="8"></rect><text x="311" y="59">optionKeyValue</text></g><path d="M382 55h10"></path><g><path d="M392 55h0"></path><path d="M708 55h0"></path><path d="M392 55a10 10 0 0 0 10 -10v-15a10 10 0 0 1 10 -10"></path><g><path d="M412 20h276"></path></g><path d="M688 20a10 10 0 0 1 10 10v15a10 10 0 0 0 10 10"></path><path d="M392 55h20"></path><g><path d="M412 55h0"></path><path d="M688 55h0"></path><path d="M412 55h10"></path><g><path d="M422 55h0"></path><path d="M678 55h0"></path><path d="M422 55h20"></path><g><path d="M442 55h0"></path><path d="M658 55h0"></path><g class="terminal"><path d="M442 55h0"></path><path d="M496 55h0"></path><rect x="442" y="44" width="54" height="22" rx="0" ry="0"></rect><text x="469" y="59">','</text></g><path d="M496 55h10"></path><path d="M506 55h10"></path><g class="non-terminal"><path d="M516 55h0"></path><path d="M658 55h0"></path><rect x="516" y="44" width="142" height="22" rx="8" ry="8"></rect><text x="587" y="59">optionKeyValue</text></g></g><path d="M658 55h20"></path></g><path d="M678 55h10"></path><path d="M422 55a10 10 0 0 0 -10 10v15a10 10 0 0 0 10 10"></path><g><path d="M422 90h256"></path></g><path d="M678 90a10 10 0 0 0 10 -10v-15a10 10 0 0 0 -10 -10"></path></g><path d="M688 55h20"></path></g><path d="M708 55h10"></path><g class="terminal"><path d="M718 55h0"></path><path d="M772 55h0"></path><rect x="718" y="44" width="54" height="22" rx="0" ry="0"></rect><text x="745" y="59">')'</text></g></g><path d="M772 55h20"></path></g></g></svg>
